<svg xmlns="http://www.w3.org/2000/svg" width="1280" height="900"><path d="M546,576L438,386L374,512Z" fill="rgb(66,44,39)" stroke="rgb(66,44,39)" stroke-width="1.51"/><path d="M438,386L376,349L374,512Z" fill="rgb(62,55,55)" stroke="rgb(62,55,55)" stroke-width="1.51"/><path d="M376,349L362,332L374,512Z" fill="rgb(72,64,64)" stroke="rgb(72,64,64)" stroke-width="1.51"/><path d="M395,297L362,332L376,349Z" fill="rgb(90,80,80)" stroke="rgb(90,80,80)" stroke-width="1.51"/><path d="M438,386L395,297L376,349Z" fill="rgb(80,71,71)" stroke="rgb(80,71,71)" stroke-width="1.51"/><path d="M605,282L395,297L438,386Z" fill="rgb(71,63,63)" stroke="rgb(71,63,63)" stroke-width="1.51"/><path d="M687,332L605,282L438,386Z" fill="rgb(50,44,44)" stroke="rgb(50,44,44)" stroke-width="1.51"/><path d="M546,576L687,332L438,386Z" fill="rgb(29,25,25)" stroke="rgb(29,25,25)" stroke-width="1.51"/><path d="M395,297L330,226L362,332Z" fill="rgb(105,93,93)" stroke="rgb(105,93,93)" stroke-width="1.51"/><path d="M605,282L411,238L395,297Z" fill="rgb(87,77,77)" stroke="rgb(87,77,77)" stroke-width="1.51"/><path d="M120,649L194,748L374,512Z" fill="rgb(156,68,50)" stroke="rgb(156,68,50)" stroke-width="1.51"/><path d="M411,238L330,226L395,297Z" fill="rgb(111,98,98)" stroke="rgb(111,98,98)" stroke-width="1.51"/><path d="M546,576L823,510L687,332Z" fill="rgb(39,16,6)" stroke="rgb(39,16,6)" stroke-width="1.51"/><path d="M432,839L628,757L546,576Z" fill="rgb(122,45,30)" stroke="rgb(122,45,30)" stroke-width="1.51"/><path d="M605,282L588,193L411,238Z" fill="rgb(84,74,74)" stroke="rgb(84,74,74)" stroke-width="1.51"/><path d="M411,238L447,122L330,226Z" fill="rgb(107,95,95)" stroke="rgb(107,95,95)" stroke-width="1.51"/><path d="M687,332L588,193L605,282Z" fill="rgb(58,51,51)" stroke="rgb(58,51,51)" stroke-width="1.51"/><path d="M628,757L823,510L546,576Z" fill="rgb(102,26,13)" stroke="rgb(102,26,13)" stroke-width="1.51"/><path d="M687,332L821,141L588,193Z" fill="rgb(91,65,60)" stroke="rgb(91,65,60)" stroke-width="1.51"/><path d="M374,512L432,839L546,576Z" fill="rgb(150,61,43)" stroke="rgb(150,61,43)" stroke-width="1.51"/><path d="M588,193L447,122L411,238Z" fill="rgb(86,77,77)" stroke="rgb(86,77,77)" stroke-width="1.51"/><path d="M374,512L194,748L432,839Z" fill="rgb(183,84,64)" stroke="rgb(183,84,64)" stroke-width="1.51"/><path d="M120,649L374,512L65,383Z" fill="rgb(78,46,40)" stroke="rgb(78,46,40)" stroke-width="1.51"/><path d="M65,383L374,512L362,332Z" fill="rgb(68,60,60)" stroke="rgb(68,60,60)" stroke-width="1.51"/><path d="M823,510L874,438L687,332Z" fill="rgb(71,27,17)" stroke="rgb(71,27,17)" stroke-width="1.51"/><path d="M330,226L65,383L362,332Z" fill="rgb(91,81,81)" stroke="rgb(91,81,81)" stroke-width="1.51"/><path d="M447,122L243,155L330,226Z" fill="rgb(110,97,97)" stroke="rgb(110,97,97)" stroke-width="1.51"/><path d="M243,155L65,383L330,226Z" fill="rgb(100,89,89)" stroke="rgb(100,89,89)" stroke-width="1.51"/><path d="M506,966L671,906L628,757Z" fill="rgb(31,18,15)" stroke="rgb(31,18,15)" stroke-width="1.51"/><path d="M1008,734L1021,578L823,510Z" fill="rgb(210,21,7)" stroke="rgb(210,21,7)" stroke-width="1.51"/><path d="M1021,578L942,397L874,438Z" fill="rgb(130,28,13)" stroke="rgb(130,28,13)" stroke-width="1.51"/><path d="M874,438L850,209L687,332Z" fill="rgb(104,51,40)" stroke="rgb(104,51,40)" stroke-width="1.51"/><path d="M588,193L633,-7L447,122Z" fill="rgb(49,44,44)" stroke="rgb(49,44,44)" stroke-width="1.51"/><path d="M874,438L892,221L850,209Z" fill="rgb(143,65,49)" stroke="rgb(143,65,49)" stroke-width="1.51"/><path d="M1021,578L874,438L823,510Z" fill="rgb(136,28,13)" stroke="rgb(136,28,13)" stroke-width="1.51"/><path d="M232,1010L506,966L432,839Z" fill="rgb(54,48,48)" stroke="rgb(54,48,48)" stroke-width="1.51"/><path d="M432,839L506,966L628,757Z" fill="rgb(55,33,28)" stroke="rgb(55,33,28)" stroke-width="1.51"/><path d="M850,209L821,141L687,332Z" fill="rgb(128,74,63)" stroke="rgb(128,74,63)" stroke-width="1.51"/><path d="M892,221L821,141L850,209Z" fill="rgb(145,72,56)" stroke="rgb(145,72,56)" stroke-width="1.51"/><path d="M942,397L892,221L874,438Z" fill="rgb(134,51,35)" stroke="rgb(134,51,35)" stroke-width="1.51"/><path d="M120,649L15,661L194,748Z" fill="rgb(143,48,30)" stroke="rgb(143,48,30)" stroke-width="1.51"/><path d="M194,748L199,898L432,839Z" fill="rgb(100,62,55)" stroke="rgb(100,62,55)" stroke-width="1.51"/><path d="M65,383L15,661L120,649Z" fill="rgb(79,32,22)" stroke="rgb(79,32,22)" stroke-width="1.51"/><path d="M57,941L199,898L194,748Z" fill="rgb(56,36,33)" stroke="rgb(56,36,33)" stroke-width="1.51"/><path d="M447,122L281,13L243,155Z" fill="rgb(92,82,82)" stroke="rgb(92,82,82)" stroke-width="1.51"/><path d="M-174,258L-201,403L65,383Z" fill="rgb(34,30,30)" stroke="rgb(34,30,30)" stroke-width="1.51"/><path d="M495,-32L281,13L447,122Z" fill="rgb(58,53,53)" stroke="rgb(58,53,53)" stroke-width="1.51"/><path d="M821,141L633,-7L588,193Z" fill="rgb(52,37,33)" stroke="rgb(52,37,33)" stroke-width="1.51"/><path d="M633,-7L495,-32L447,122Z" fill="rgb(36,31,31)" stroke="rgb(36,31,31)" stroke-width="1.51"/><path d="M506,966L686,972L671,906Z" fill="rgb(13,8,8)" stroke="rgb(13,8,8)" stroke-width="1.51"/><path d="M1008,734L823,510L628,757Z" fill="rgb(191,25,10)" stroke="rgb(191,25,10)" stroke-width="1.51"/><path d="M1008,734L628,757L880,923Z" fill="rgb(130,28,13)" stroke="rgb(130,28,13)" stroke-width="1.51"/><path d="M942,397L1051,251L892,221Z" fill="rgb(178,72,51)" stroke="rgb(178,72,51)" stroke-width="1.51"/><path d="M633,-7L503,-77L495,-32Z" fill="rgb(26,23,23)" stroke="rgb(26,23,23)" stroke-width="1.51"/><path d="M495,-32L503,-77L281,13Z" fill="rgb(46,41,41)" stroke="rgb(46,41,41)" stroke-width="1.51"/><path d="M1021,578L1055,425L942,397Z" fill="rgb(116,27,13)" stroke="rgb(116,27,13)" stroke-width="1.51"/><path d="M199,898L232,1010L432,839Z" fill="rgb(61,54,54)" stroke="rgb(61,54,54)" stroke-width="1.51"/><path d="M464,1214L770,1083L686,972Z" fill="rgb(7,3,3)" stroke="rgb(7,3,3)" stroke-width="1.51"/><path d="M129,1053L232,1010L199,898Z" fill="rgb(42,37,37)" stroke="rgb(42,37,37)" stroke-width="1.51"/><path d="M1021,578L1260,396L1055,425Z" fill="rgb(77,24,12)" stroke="rgb(77,24,12)" stroke-width="1.51"/><path d="M880,923L628,757L671,906Z" fill="rgb(60,20,10)" stroke="rgb(60,20,10)" stroke-width="1.51"/><path d="M686,972L809,972L671,906Z" fill="rgb(40,17,7)" stroke="rgb(40,17,7)" stroke-width="1.51"/><path d="M770,1083L809,972L686,972Z" fill="rgb(51,19,8)" stroke="rgb(51,19,8)" stroke-width="1.51"/><path d="M809,972L880,923L671,906Z" fill="rgb(61,21,10)" stroke="rgb(61,21,10)" stroke-width="1.51"/><path d="M633,-7L692,-93L503,-77Z" fill="rgb(13,10,10)" stroke="rgb(13,10,10)" stroke-width="1.51"/><path d="M821,141L689,-71L633,-7Z" fill="rgb(41,20,13)" stroke="rgb(41,20,13)" stroke-width="1.51"/><path d="M692,-93L689,-71L795,-194Z" fill="rgb(40,16,6)" stroke="rgb(40,16,6)" stroke-width="1.51"/><path d="M1103,-66L821,141L892,221Z" fill="rgb(148,54,35)" stroke="rgb(148,54,35)" stroke-width="1.51"/><path d="M1055,425L1051,251L942,397Z" fill="rgb(133,50,34)" stroke="rgb(133,50,34)" stroke-width="1.51"/><path d="M65,383L-136,477L15,661Z" fill="rgb(38,16,6)" stroke="rgb(38,16,6)" stroke-width="1.51"/><path d="M15,661L57,941L194,748Z" fill="rgb(85,36,26)" stroke="rgb(85,36,26)" stroke-width="1.51"/><path d="M-201,403L-136,477L65,383Z" fill="rgb(15,13,13)" stroke="rgb(15,13,13)" stroke-width="1.51"/><path d="M689,-71L692,-93L633,-7Z" fill="rgb(22,7,3)" stroke="rgb(22,7,3)" stroke-width="1.51"/><path d="M795,-194L689,-71L821,141Z" fill="rgb(54,19,8)" stroke="rgb(54,19,8)" stroke-width="1.51"/><path d="M-245,940L57,941L15,661Z" fill="rgb(37,15,5)" stroke="rgb(37,15,5)" stroke-width="1.51"/><path d="M1008,734L1092,685L1021,578Z" fill="rgb(215,20,7)" stroke="rgb(215,20,7)" stroke-width="1.51"/><path d="M1055,425L1260,396L1051,251Z" fill="rgb(93,43,33)" stroke="rgb(93,43,33)" stroke-width="1.51"/><path d="M1139,702L1092,685L1008,734Z" fill="rgb(186,25,10)" stroke="rgb(186,25,10)" stroke-width="1.51"/><path d="M464,1214L686,972L506,966Z" fill="rgb(26,23,23)" stroke="rgb(26,23,23)" stroke-width="1.51"/><path d="M809,972L1037,1112L880,923Z" fill="rgb(105,26,13)" stroke="rgb(105,26,13)" stroke-width="1.51"/><path d="M1037,1112L1139,702L1008,734Z" fill="rgb(113,27,13)" stroke="rgb(113,27,13)" stroke-width="1.51"/><path d="M57,941L129,1053L199,898Z" fill="rgb(32,28,28)" stroke="rgb(32,28,28)" stroke-width="1.51"/><path d="M232,1010L464,1214L506,966Z" fill="rgb(52,46,46)" stroke="rgb(52,46,46)" stroke-width="1.51"/><path d="M-136,477L-288,537L15,661Z" fill="rgb(62,21,9)" stroke="rgb(62,21,9)" stroke-width="1.51"/><path d="M-174,258L65,383L243,155Z" fill="rgb(63,57,57)" stroke="rgb(63,57,57)" stroke-width="1.51"/><path d="M1092,685L1139,702L1021,578Z" fill="rgb(191,25,9)" stroke="rgb(191,25,9)" stroke-width="1.51"/><path d="M1037,1112L1008,734L880,923Z" fill="rgb(119,27,13)" stroke="rgb(119,27,13)" stroke-width="1.51"/><path d="M-36,-73L-174,258L243,155Z" fill="rgb(38,34,34)" stroke="rgb(38,34,34)" stroke-width="1.51"/><path d="M-247,346L-225,451L-201,403Z" fill="rgb(21,19,19)" stroke="rgb(21,19,19)" stroke-width="1.51"/><path d="M-201,403L-225,451L-136,477Z" fill="rgb(6,4,4)" stroke="rgb(6,4,4)" stroke-width="1.51"/><path d="M395,1348L464,1214L232,1010Z" fill="rgb(59,52,52)" stroke="rgb(59,52,52)" stroke-width="1.51"/><path d="M-174,258L-247,346L-201,403Z" fill="rgb(37,33,33)" stroke="rgb(37,33,33)" stroke-width="1.51"/><path d="M692,-93L608,-244L503,-77Z" fill="rgb(14,12,12)" stroke="rgb(14,12,12)" stroke-width="1.51"/><path d="M503,-77L454,-312L281,13Z" fill="rgb(48,43,43)" stroke="rgb(48,43,43)" stroke-width="1.51"/><path d="M281,13L-36,-73L243,155Z" fill="rgb(44,39,39)" stroke="rgb(44,39,39)" stroke-width="1.51"/><path d="M795,-194L608,-244L692,-93Z" fill="rgb(31,12,4)" stroke="rgb(31,12,4)" stroke-width="1.51"/><path d="M848,-238L795,-194L1103,-66Z" fill="rgb(106,26,12)" stroke="rgb(106,26,12)" stroke-width="1.51"/><path d="M-289,234L-266,344L-247,346Z" fill="rgb(43,39,39)" stroke="rgb(43,39,39)" stroke-width="1.51"/><path d="M-247,346L-266,344L-225,451Z" fill="rgb(26,23,23)" stroke="rgb(26,23,23)" stroke-width="1.51"/><path d="M137,-472L-36,-73L281,13Z" fill="rgb(30,27,27)" stroke="rgb(30,27,27)" stroke-width="1.51"/><path d="M-174,258L-289,234L-247,346Z" fill="rgb(51,46,45)" stroke="rgb(51,46,45)" stroke-width="1.51"/><path d="M-401,434L-288,537L-225,451Z" fill="rgb(23,8,3)" stroke="rgb(23,8,3)" stroke-width="1.51"/><path d="M-225,451L-288,537L-136,477Z" fill="rgb(30,12,4)" stroke="rgb(30,12,4)" stroke-width="1.51"/><path d="M57,941L-24,1300L129,1053Z" fill="rgb(18,16,16)" stroke="rgb(18,16,16)" stroke-width="1.51"/><path d="M1103,-66L795,-194L821,141Z" fill="rgb(102,26,12)" stroke="rgb(102,26,12)" stroke-width="1.51"/><path d="M1286,414L1260,396L1021,578Z" fill="rgb(49,19,8)" stroke="rgb(49,19,8)" stroke-width="1.51"/><path d="M1260,396L1233,216L1051,251Z" fill="rgb(90,55,47)" stroke="rgb(90,55,47)" stroke-width="1.51"/><path d="M608,-244L454,-312L503,-77Z" fill="rgb(29,26,26)" stroke="rgb(29,26,26)" stroke-width="1.51"/><path d="M474,-345L454,-312L608,-244Z" fill="rgb(31,28,28)" stroke="rgb(31,28,28)" stroke-width="1.51"/><path d="M1260,396L1402,301L1233,216Z" fill="rgb(47,41,41)" stroke="rgb(47,41,41)" stroke-width="1.51"/><path d="M1139,702L1286,414L1021,578Z" fill="rgb(115,27,13)" stroke="rgb(115,27,13)" stroke-width="1.51"/><path d="M-266,344L-401,434L-225,451Z" fill="rgb(18,16,16)" stroke="rgb(18,16,16)" stroke-width="1.51"/><path d="M-307,93L-289,234L-174,258Z" fill="rgb(57,51,51)" stroke="rgb(57,51,51)" stroke-width="1.51"/><path d="M1103,-66L892,221L1051,251Z" fill="rgb(147,61,44)" stroke="rgb(147,61,44)" stroke-width="1.51"/><path d="M795,-194L690,-308L608,-244Z" fill="rgb(31,12,4)" stroke="rgb(31,12,4)" stroke-width="1.51"/><path d="M848,-238L690,-308L795,-194Z" fill="rgb(57,20,8)" stroke="rgb(57,20,8)" stroke-width="1.51"/><path d="M137,-472L-131,-167L-36,-73Z" fill="rgb(0,0,0)" stroke="rgb(0,0,0)" stroke-width="1.51"/><path d="M690,-308L474,-345L608,-244Z" fill="rgb(17,14,14)" stroke="rgb(17,14,14)" stroke-width="1.51"/><path d="M1181,30L1103,-66L1051,251Z" fill="rgb(89,38,28)" stroke="rgb(89,38,28)" stroke-width="1.51"/><path d="M1239,133L1181,30L1051,251Z" fill="rgb(92,51,42)" stroke="rgb(92,51,42)" stroke-width="1.51"/><path d="M1022,1138L1037,1112L809,972Z" fill="rgb(123,27,13)" stroke="rgb(123,27,13)" stroke-width="1.51"/><path d="M1139,702L1333,641L1286,414Z" fill="rgb(87,25,12)" stroke="rgb(87,25,12)" stroke-width="1.51"/><path d="M1022,1138L809,972L770,1083Z" fill="rgb(90,25,12)" stroke="rgb(90,25,12)" stroke-width="1.51"/><path d="M1233,216L1239,133L1051,251Z" fill="rgb(103,64,56)" stroke="rgb(103,64,56)" stroke-width="1.51"/><path d="M1402,301L1239,133L1233,216Z" fill="rgb(65,57,57)" stroke="rgb(65,57,57)" stroke-width="1.51"/><path d="M936,1321L1022,1138L770,1083Z" fill="rgb(105,26,13)" stroke="rgb(105,26,13)" stroke-width="1.51"/><path d="M135,1367L395,1348L232,1010Z" fill="rgb(54,48,48)" stroke="rgb(54,48,48)" stroke-width="1.51"/><path d="M-288,537L-245,940L15,661Z" fill="rgb(102,26,12)" stroke="rgb(102,26,12)" stroke-width="1.51"/><path d="M464,1214L660,1350L770,1083Z" fill="rgb(10,6,5)" stroke="rgb(10,6,5)" stroke-width="1.51"/><path d="M135,1367L232,1010L129,1053Z" fill="rgb(38,34,34)" stroke="rgb(38,34,34)" stroke-width="1.51"/><path d="M1258,1088L1139,702L1037,1112Z" fill="rgb(58,20,10)" stroke="rgb(58,20,10)" stroke-width="1.51"/><path d="M1258,1088L1333,641L1139,702Z" fill="rgb(67,22,11)" stroke="rgb(67,22,11)" stroke-width="1.51"/><path d="M1286,414L1402,301L1260,396Z" fill="rgb(30,26,26)" stroke="rgb(30,26,26)" stroke-width="1.51"/><path d="M395,1348L660,1350L464,1214Z" fill="rgb(33,30,30)" stroke="rgb(33,30,30)" stroke-width="1.51"/><path d="M-36,-73L-307,93L-174,258Z" fill="rgb(30,28,28)" stroke="rgb(30,28,28)" stroke-width="1.51"/><path d="M-393,231L-401,434L-266,344Z" fill="rgb(37,33,33)" stroke="rgb(37,33,33)" stroke-width="1.51"/><path d="M-393,231L-266,344L-289,234Z" fill="rgb(53,48,48)" stroke="rgb(53,48,48)" stroke-width="1.51"/><path d="M-288,537L-453,709L-245,940Z" fill="rgb(94,25,12)" stroke="rgb(94,25,12)" stroke-width="1.51"/><path d="M305,-446L281,13L454,-312Z" fill="rgb(60,54,54)" stroke="rgb(60,54,54)" stroke-width="1.51"/><path d="M-36,-73L-220,-76L-307,93Z" fill="rgb(0,0,0)" stroke="rgb(0,0,0)" stroke-width="1.51"/><path d="M-131,-167L-220,-76L-36,-73Z" fill="rgb(0,0,0)" stroke="rgb(0,0,0)" stroke-width="1.51"/><path d="M1333,641L1379,542L1286,414Z" fill="rgb(51,19,9)" stroke="rgb(51,19,9)" stroke-width="1.51"/><path d="M-303,17L-393,231L-307,93Z" fill="rgb(36,32,32)" stroke="rgb(36,32,32)" stroke-width="1.51"/><path d="M-307,93L-393,231L-289,234Z" fill="rgb(54,49,49)" stroke="rgb(54,49,49)" stroke-width="1.51"/><path d="M-220,-76L-303,17L-307,93Z" fill="rgb(5,5,4)" stroke="rgb(5,5,4)" stroke-width="1.51"/><path d="M690,-308L711,-408L474,-345Z" fill="rgb(8,6,6)" stroke="rgb(8,6,6)" stroke-width="1.51"/><path d="M869,-388L711,-408L690,-308Z" fill="rgb(50,18,8)" stroke="rgb(50,18,8)" stroke-width="1.51"/><path d="M869,-388L690,-308L848,-238Z" fill="rgb(65,21,9)" stroke="rgb(65,21,9)" stroke-width="1.51"/><path d="M-393,231L-447,485L-401,434Z" fill="rgb(25,23,23)" stroke="rgb(25,23,23)" stroke-width="1.51"/><path d="M-401,434L-447,485L-288,537Z" fill="rgb(29,11,4)" stroke="rgb(29,11,4)" stroke-width="1.51"/><path d="M1442,327L1402,301L1286,414Z" fill="rgb(36,31,31)" stroke="rgb(36,31,31)" stroke-width="1.51"/><path d="M1239,133L1500,15L1181,30Z" fill="rgb(24,22,22)" stroke="rgb(24,22,22)" stroke-width="1.51"/><path d="M903,-529L869,-388L1170,-434Z" fill="rgb(114,26,12)" stroke="rgb(114,26,12)" stroke-width="1.51"/><path d="M395,1348L662,1503L660,1350Z" fill="rgb(23,19,19)" stroke="rgb(23,19,19)" stroke-width="1.51"/><path d="M-24,1300L135,1367L129,1053Z" fill="rgb(23,20,20)" stroke="rgb(23,20,20)" stroke-width="1.51"/><path d="M474,-345L305,-446L454,-312Z" fill="rgb(48,43,43)" stroke="rgb(48,43,43)" stroke-width="1.51"/><path d="M435,-474L305,-446L474,-345Z" fill="rgb(50,45,45)" stroke="rgb(50,45,45)" stroke-width="1.51"/><path d="M1022,1138L1258,1088L1037,1112Z" fill="rgb(71,22,11)" stroke="rgb(71,22,11)" stroke-width="1.51"/><path d="M660,1350L936,1321L770,1083Z" fill="rgb(62,21,10)" stroke="rgb(62,21,10)" stroke-width="1.51"/><path d="M-245,940L-24,1300L57,941Z" fill="rgb(3,2,1)" stroke="rgb(3,2,1)" stroke-width="1.51"/><path d="M848,-238L1103,-66L1170,-434Z" fill="rgb(92,25,12)" stroke="rgb(92,25,12)" stroke-width="1.51"/><path d="M1170,-434L869,-388L848,-238Z" fill="rgb(121,27,12)" stroke="rgb(121,27,12)" stroke-width="1.51"/><path d="M-447,485L-453,709L-288,537Z" fill="rgb(71,22,10)" stroke="rgb(71,22,10)" stroke-width="1.51"/><path d="M-443,1048L-79,1410L-24,1300Z" fill="rgb(3,2,1)" stroke="rgb(3,2,1)" stroke-width="1.51"/><path d="M506,-601L435,-474L711,-408Z" fill="rgb(24,22,22)" stroke="rgb(24,22,22)" stroke-width="1.51"/><path d="M711,-408L435,-474L474,-345Z" fill="rgb(26,24,24)" stroke="rgb(26,24,24)" stroke-width="1.51"/><path d="M1402,301L1500,15L1239,133Z" fill="rgb(47,41,41)" stroke="rgb(47,41,41)" stroke-width="1.51"/><path d="M1379,542L1442,327L1286,414Z" fill="rgb(16,11,11)" stroke="rgb(16,11,11)" stroke-width="1.51"/><path d="M1080,1335L1258,1088L1022,1138Z" fill="rgb(66,22,11)" stroke="rgb(66,22,11)" stroke-width="1.51"/><path d="M1333,641L1516,729L1379,542Z" fill="rgb(104,26,13)" stroke="rgb(104,26,13)" stroke-width="1.51"/><path d="M1570,494L1537,334L1442,327Z" fill="rgb(26,23,23)" stroke="rgb(26,23,23)" stroke-width="1.51"/><path d="M506,-601L137,-472L305,-446Z" fill="rgb(64,58,58)" stroke="rgb(64,58,58)" stroke-width="1.51"/><path d="M305,-446L137,-472L281,13Z" fill="rgb(50,45,45)" stroke="rgb(50,45,45)" stroke-width="1.51"/><path d="M-131,-167L-292,-284L-220,-76Z" fill="rgb(0,0,0)" stroke="rgb(0,0,0)" stroke-width="1.51"/><path d="M1140,1391L1310,1096L1258,1088Z" fill="rgb(29,11,5)" stroke="rgb(29,11,5)" stroke-width="1.51"/><path d="M1258,1088L1310,1096L1333,641Z" fill="rgb(7,3,3)" stroke="rgb(7,3,3)" stroke-width="1.51"/><path d="M660,1350L915,1496L936,1321Z" fill="rgb(79,24,12)" stroke="rgb(79,24,12)" stroke-width="1.51"/><path d="M936,1321L1080,1335L1022,1138Z" fill="rgb(104,26,13)" stroke="rgb(104,26,13)" stroke-width="1.51"/><path d="M644,1576L662,1503L395,1348Z" fill="rgb(24,20,20)" stroke="rgb(24,20,20)" stroke-width="1.51"/><path d="M915,1496L1080,1335L936,1321Z" fill="rgb(118,27,13)" stroke="rgb(118,27,13)" stroke-width="1.51"/><path d="M1310,1096L1516,729L1333,641Z" fill="rgb(50,19,8)" stroke="rgb(50,19,8)" stroke-width="1.51"/><path d="M1442,327L1614,269L1402,301Z" fill="rgb(48,42,42)" stroke="rgb(48,42,42)" stroke-width="1.51"/><path d="M1570,494L1442,327L1379,542Z" fill="rgb(11,4,3)" stroke="rgb(11,4,3)" stroke-width="1.51"/><path d="M-443,1048L-24,1300L-245,940Z" fill="rgb(3,2,1)" stroke="rgb(3,2,1)" stroke-width="1.51"/><path d="M-24,1300L-79,1410L135,1367Z" fill="rgb(7,5,4)" stroke="rgb(7,5,4)" stroke-width="1.51"/><path d="M84,1667L644,1576L395,1348Z" fill="rgb(57,50,50)" stroke="rgb(57,50,50)" stroke-width="1.51"/><path d="M-453,709L-443,1048L-245,940Z" fill="rgb(4,2,1)" stroke="rgb(4,2,1)" stroke-width="1.51"/><path d="M759,-759L506,-601L711,-408Z" fill="rgb(16,5,2)" stroke="rgb(16,5,2)" stroke-width="1.51"/><path d="M435,-474L506,-601L305,-446Z" fill="rgb(48,43,43)" stroke="rgb(48,43,43)" stroke-width="1.51"/><path d="M1516,729L1570,494L1379,542Z" fill="rgb(79,24,12)" stroke="rgb(79,24,12)" stroke-width="1.51"/><path d="M-220,-76L-292,-284L-303,17Z" fill="rgb(0,0,0)" stroke="rgb(0,0,0)" stroke-width="1.51"/><path d="M-303,17L-292,-284L-393,231Z" fill="rgb(0,0,0)" stroke="rgb(0,0,0)" stroke-width="1.51"/><path d="M-393,231L-742,1339L-447,485Z" fill="rgb(117,27,12)" stroke="rgb(117,27,12)" stroke-width="1.51"/><path d="M137,-472L-292,-284L-131,-167Z" fill="rgb(0,0,0)" stroke="rgb(0,0,0)" stroke-width="1.51"/><path d="M662,1503L915,1496L660,1350Z" fill="rgb(48,18,8)" stroke="rgb(48,18,8)" stroke-width="1.51"/><path d="M869,-388L903,-529L711,-408Z" fill="rgb(74,23,10)" stroke="rgb(74,23,10)" stroke-width="1.51"/><path d="M1424,-283L1103,-66L1181,30Z" fill="rgb(27,10,3)" stroke="rgb(27,10,3)" stroke-width="1.51"/><path d="M662,1503L644,1576L915,1496Z" fill="rgb(46,18,8)" stroke="rgb(46,18,8)" stroke-width="1.51"/><path d="M84,1667L395,1348L135,1367Z" fill="rgb(45,40,40)" stroke="rgb(45,40,40)" stroke-width="1.51"/><path d="M915,1496L1140,1391L1080,1335Z" fill="rgb(93,25,13)" stroke="rgb(93,25,13)" stroke-width="1.51"/><path d="M1080,1335L1140,1391L1258,1088Z" fill="rgb(53,19,9)" stroke="rgb(53,19,9)" stroke-width="1.51"/><path d="M1614,269L1500,15L1402,301Z" fill="rgb(59,52,52)" stroke="rgb(59,52,52)" stroke-width="1.51"/><path d="M1614,269L1442,327L1537,334Z" fill="rgb(45,40,40)" stroke="rgb(45,40,40)" stroke-width="1.51"/><path d="M1424,-283L1170,-434L1103,-66Z" fill="rgb(28,11,4)" stroke="rgb(28,11,4)" stroke-width="1.51"/><path d="M1570,494L1614,269L1537,334Z" fill="rgb(31,27,27)" stroke="rgb(31,27,27)" stroke-width="1.51"/><path d="M1570,494L1741,244L1614,269Z" fill="rgb(38,34,34)" stroke="rgb(38,34,34)" stroke-width="1.51"/><path d="M1516,729L1682,571L1570,494Z" fill="rgb(84,24,12)" stroke="rgb(84,24,12)" stroke-width="1.51"/><path d="M1611,1040L1635,788L1516,729Z" fill="rgb(36,15,6)" stroke="rgb(36,15,6)" stroke-width="1.51"/><path d="M1611,1040L1516,729L1310,1096Z" fill="rgb(7,3,3)" stroke="rgb(7,3,3)" stroke-width="1.51"/><path d="M1635,788L1682,571L1516,729Z" fill="rgb(113,27,13)" stroke="rgb(113,27,13)" stroke-width="1.51"/><path d="M903,-529L759,-759L711,-408Z" fill="rgb(61,20,9)" stroke="rgb(61,20,9)" stroke-width="1.51"/><path d="M1170,-434L973,-622L903,-529Z" fill="rgb(102,26,12)" stroke="rgb(102,26,12)" stroke-width="1.51"/><path d="M1170,-434L1615,-514L973,-622Z" fill="rgb(20,7,3)" stroke="rgb(20,7,3)" stroke-width="1.51"/><path d="M1500,15L1424,-283L1181,30Z" fill="rgb(3,2,1)" stroke="rgb(3,2,1)" stroke-width="1.51"/><path d="M1663,-148L1424,-283L1500,15Z" fill="rgb(3,2,1)" stroke="rgb(3,2,1)" stroke-width="1.51"/><path d="M-79,1410L84,1667L135,1367Z" fill="rgb(17,14,14)" stroke="rgb(17,14,14)" stroke-width="1.51"/><path d="M-618,1306L84,1667L-79,1410Z" fill="rgb(3,2,1)" stroke="rgb(3,2,1)" stroke-width="1.51"/><path d="M1932,801L1935,558L1682,571Z" fill="rgb(108,26,13)" stroke="rgb(108,26,13)" stroke-width="1.51"/><path d="M1684,1066L1611,1040L1568,1377Z" fill="rgb(7,3,3)" stroke="rgb(7,3,3)" stroke-width="1.51"/><path d="M973,-622L759,-759L903,-529Z" fill="rgb(92,25,12)" stroke="rgb(92,25,12)" stroke-width="1.51"/><path d="M506,-601L759,-759L137,-472Z" fill="rgb(38,35,35)" stroke="rgb(38,35,35)" stroke-width="1.51"/><path d="M137,-472L759,-759L-292,-284Z" fill="rgb(43,39,39)" stroke="rgb(43,39,39)" stroke-width="1.51"/><path d="M1614,269L1741,244L1500,15Z" fill="rgb(54,48,48)" stroke="rgb(54,48,48)" stroke-width="1.51"/><path d="M1682,571L1741,244L1570,494Z" fill="rgb(13,8,8)" stroke="rgb(13,8,8)" stroke-width="1.51"/><path d="M1935,558L1741,244L1682,571Z" fill="rgb(14,5,3)" stroke="rgb(14,5,3)" stroke-width="1.51"/><path d="M1611,1040L1684,1066L1635,788Z" fill="rgb(7,3,3)" stroke="rgb(7,3,3)" stroke-width="1.51"/><path d="M1568,1377L1611,1040L1310,1096Z" fill="rgb(7,3,3)" stroke="rgb(7,3,3)" stroke-width="1.51"/><path d="M1424,-283L1615,-514L1170,-434Z" fill="rgb(3,2,1)" stroke="rgb(3,2,1)" stroke-width="1.51"/><path d="M1741,244L1663,-148L1500,15Z" fill="rgb(18,16,16)" stroke="rgb(18,16,16)" stroke-width="1.51"/><path d="M-443,1048L-618,1306L-79,1410Z" fill="rgb(3,2,1)" stroke="rgb(3,2,1)" stroke-width="1.51"/><path d="M-742,1339L-618,1306L-443,1048Z" fill="rgb(3,2,1)" stroke="rgb(3,2,1)" stroke-width="1.51"/><path d="M-742,1339L-443,1048L-453,709Z" fill="rgb(3,2,1)" stroke="rgb(3,2,1)" stroke-width="1.51"/><path d="M-742,1339L-453,709L-447,485Z" fill="rgb(38,16,6)" stroke="rgb(38,16,6)" stroke-width="1.51"/><path d="M1140,1391L1568,1377L1310,1096Z" fill="rgb(7,3,3)" stroke="rgb(7,3,3)" stroke-width="1.51"/><path d="M915,1496L1568,1377L1140,1391Z" fill="rgb(37,16,7)" stroke="rgb(37,16,7)" stroke-width="1.51"/><path d="M1821,1441L1568,1377L915,1496Z" fill="rgb(7,3,3)" stroke="rgb(7,3,3)" stroke-width="1.51"/><path d="M1663,-148L1694,-285L1424,-283Z" fill="rgb(3,2,1)" stroke="rgb(3,2,1)" stroke-width="1.51"/><path d="M973,-622L1615,-514L759,-759Z" fill="rgb(66,21,9)" stroke="rgb(66,21,9)" stroke-width="1.51"/><path d="M1741,244L1694,-285L1663,-148Z" fill="rgb(3,2,1)" stroke="rgb(3,2,1)" stroke-width="1.51"/><path d="M1932,801L1682,571L1635,788Z" fill="rgb(100,26,13)" stroke="rgb(100,26,13)" stroke-width="1.51"/><path d="M1741,244L1935,558L1694,-285Z" fill="rgb(53,47,47)" stroke="rgb(53,47,47)" stroke-width="1.51"/><path d="M1932,801L1635,788L1684,1066Z" fill="rgb(20,7,4)" stroke="rgb(20,7,4)" stroke-width="1.51"/><path d="M1821,1441L1932,801L1684,1066Z" fill="rgb(7,3,3)" stroke="rgb(7,3,3)" stroke-width="1.51"/><path d="M-618,1306L-742,1339L84,1667Z" fill="rgb(3,2,1)" stroke="rgb(3,2,1)" stroke-width="1.51"/><path d="M-292,-284L-742,1339L-393,231Z" fill="rgb(12,10,10)" stroke="rgb(12,10,10)" stroke-width="1.51"/><path d="M1694,-285L1615,-514L1424,-283Z" fill="rgb(3,2,1)" stroke="rgb(3,2,1)" stroke-width="1.51"/><path d="M1568,1377L1821,1441L1684,1066Z" fill="rgb(7,3,3)" stroke="rgb(7,3,3)" stroke-width="1.51"/><path d="M644,1576L1821,1441L915,1496Z" fill="rgb(64,21,10)" stroke="rgb(64,21,10)" stroke-width="1.51"/><path d="M84,1667L1821,1441L644,1576Z" fill="rgb(84,24,12)" stroke="rgb(84,24,12)" stroke-width="1.51"/></svg>