<svg xmlns="http://www.w3.org/2000/svg" width="1280" height="80"><path d="M672,68L461,88L679,109Z" fill="rgb(225,19,15)" stroke="rgb(225,19,15)" stroke-width="1.51"/><path d="M461,88L542,224L679,109Z" fill="rgb(229,16,12)" stroke="rgb(229,16,12)" stroke-width="1.51"/><path d="M542,224L605,232L679,109Z" fill="rgb(224,20,15)" stroke="rgb(224,20,15)" stroke-width="1.51"/><path d="M605,232L643,246L679,109Z" fill="rgb(221,22,17)" stroke="rgb(221,22,17)" stroke-width="1.51"/><path d="M724,364L643,246L605,232Z" fill="rgb(220,22,18)" stroke="rgb(220,22,18)" stroke-width="1.51"/><path d="M461,88L410,133L542,224Z" fill="rgb(236,7,5)" stroke="rgb(236,7,5)" stroke-width="1.51"/><path d="M672,68L600,-90L461,88Z" fill="rgb(217,24,15)" stroke="rgb(217,24,15)" stroke-width="1.51"/><path d="M461,88L436,-84L410,133Z" fill="rgb(226,27,22)" stroke="rgb(226,27,22)" stroke-width="1.51"/><path d="M672,68L715,-38L600,-90Z" fill="rgb(103,29,20)" stroke="rgb(103,29,20)" stroke-width="1.51"/><path d="M808,178L715,-38L672,68Z" fill="rgb(204,33,29)" stroke="rgb(204,33,29)" stroke-width="1.51"/><path d="M679,109L808,178L672,68Z" fill="rgb(214,26,21)" stroke="rgb(214,26,21)" stroke-width="1.51"/><path d="M643,246L760,190L679,109Z" fill="rgb(216,25,20)" stroke="rgb(216,25,20)" stroke-width="1.51"/><path d="M600,-90L534,-116L461,88Z" fill="rgb(114,28,16)" stroke="rgb(114,28,16)" stroke-width="1.51"/><path d="M534,-116L436,-84L461,88Z" fill="rgb(118,27,14)" stroke="rgb(118,27,14)" stroke-width="1.51"/><path d="M760,190L808,178L679,109Z" fill="rgb(212,27,23)" stroke="rgb(212,27,23)" stroke-width="1.51"/><path d="M724,364L808,178L760,190Z" fill="rgb(210,28,23)" stroke="rgb(210,28,23)" stroke-width="1.51"/><path d="M534,-116L444,-114L436,-84Z" fill="rgb(119,27,14)" stroke="rgb(119,27,14)" stroke-width="1.51"/><path d="M643,246L724,364L760,190Z" fill="rgb(215,25,21)" stroke="rgb(215,25,21)" stroke-width="1.51"/><path d="M542,224L724,364L605,232Z" fill="rgb(223,21,16)" stroke="rgb(223,21,16)" stroke-width="1.51"/><path d="M334,313L724,364L542,224Z" fill="rgb(231,14,10)" stroke="rgb(231,14,10)" stroke-width="1.51"/><path d="M410,133L334,313L542,224Z" fill="rgb(240,2,2)" stroke="rgb(240,2,2)" stroke-width="1.51"/><path d="M196,186L334,313L410,133Z" fill="rgb(204,18,6)" stroke="rgb(204,18,6)" stroke-width="1.51"/><path d="M808,178L885,163L715,-38Z" fill="rgb(207,29,25)" stroke="rgb(207,29,25)" stroke-width="1.51"/><path d="M724,364L885,163L808,178Z" fill="rgb(206,30,25)" stroke="rgb(206,30,25)" stroke-width="1.51"/><path d="M654,-257L534,-116L600,-90Z" fill="rgb(108,28,18)" stroke="rgb(108,28,18)" stroke-width="1.51"/><path d="M654,-257L483,-239L534,-116Z" fill="rgb(112,28,17)" stroke="rgb(112,28,17)" stroke-width="1.51"/><path d="M534,-116L483,-239L444,-114Z" fill="rgb(117,27,14)" stroke="rgb(117,27,14)" stroke-width="1.51"/><path d="M715,-38L654,-257L600,-90Z" fill="rgb(103,28,20)" stroke="rgb(103,28,20)" stroke-width="1.51"/><path d="M911,-105L654,-257L715,-38Z" fill="rgb(95,29,22)" stroke="rgb(95,29,22)" stroke-width="1.51"/><path d="M182,7L436,-84L444,-114Z" fill="rgb(102,25,12)" stroke="rgb(102,25,12)" stroke-width="1.51"/><path d="M182,7L410,133L436,-84Z" fill="rgb(187,25,9)" stroke="rgb(187,25,9)" stroke-width="1.51"/><path d="M182,7L196,186L410,133Z" fill="rgb(188,21,8)" stroke="rgb(188,21,8)" stroke-width="1.51"/><path d="M62,-320L182,7L444,-114Z" fill="rgb(68,21,9)" stroke="rgb(68,21,9)" stroke-width="1.51"/><path d="M885,163L911,-105L715,-38Z" fill="rgb(119,33,26)" stroke="rgb(119,33,26)" stroke-width="1.51"/><path d="M196,186L99,221L334,313Z" fill="rgb(172,24,9)" stroke="rgb(172,24,9)" stroke-width="1.51"/><path d="M182,7L99,221L196,186Z" fill="rgb(156,25,10)" stroke="rgb(156,25,10)" stroke-width="1.51"/><path d="M911,-105L923,-298L654,-257Z" fill="rgb(89,29,24)" stroke="rgb(89,29,24)" stroke-width="1.51"/><path d="M885,163L1070,-12L911,-105Z" fill="rgb(165,32,24)" stroke="rgb(165,32,24)" stroke-width="1.51"/><path d="M1096,35L1070,-12L885,163Z" fill="rgb(195,35,32)" stroke="rgb(195,35,32)" stroke-width="1.51"/><path d="M1214,166L1096,35L885,163Z" fill="rgb(214,21,17)" stroke="rgb(214,21,17)" stroke-width="1.51"/><path d="M654,-257L824,-402L483,-239Z" fill="rgb(104,28,20)" stroke="rgb(104,28,20)" stroke-width="1.51"/><path d="M1021,-198L923,-298L911,-105Z" fill="rgb(93,28,22)" stroke="rgb(93,28,22)" stroke-width="1.51"/><path d="M1021,-198L911,-105L1070,-12Z" fill="rgb(95,28,21)" stroke="rgb(95,28,21)" stroke-width="1.51"/><path d="M1113,-73L1021,-198L1070,-12Z" fill="rgb(99,27,19)" stroke="rgb(99,27,19)" stroke-width="1.51"/><path d="M923,-298L824,-402L654,-257Z" fill="rgb(92,29,24)" stroke="rgb(92,29,24)" stroke-width="1.51"/><path d="M1232,-346L824,-402L923,-298Z" fill="rgb(95,28,21)" stroke="rgb(95,28,21)" stroke-width="1.51"/><path d="M1096,35L1113,-73L1070,-12Z" fill="rgb(100,27,18)" stroke="rgb(100,27,18)" stroke-width="1.51"/><path d="M724,364L1063,423L885,163Z" fill="rgb(204,30,26)" stroke="rgb(204,30,26)" stroke-width="1.51"/><path d="M1096,35L1276,-4L1113,-73Z" fill="rgb(104,26,16)" stroke="rgb(104,26,16)" stroke-width="1.51"/><path d="M-18,527L1063,423L724,364Z" fill="rgb(226,18,14)" stroke="rgb(226,18,14)" stroke-width="1.51"/><path d="M-114,-66L-51,158L182,7Z" fill="rgb(115,28,16)" stroke="rgb(115,28,16)" stroke-width="1.51"/><path d="M182,7L-51,158L99,221Z" fill="rgb(132,26,11)" stroke="rgb(132,26,11)" stroke-width="1.51"/><path d="M483,-239L217,-423L444,-114Z" fill="rgb(109,26,12)" stroke="rgb(109,26,12)" stroke-width="1.51"/><path d="M824,-402L217,-423L483,-239Z" fill="rgb(116,28,15)" stroke="rgb(116,28,15)" stroke-width="1.51"/><path d="M1063,423L1214,166L885,163Z" fill="rgb(213,22,18)" stroke="rgb(213,22,18)" stroke-width="1.51"/><path d="M217,-423L166,-407L444,-114Z" fill="rgb(80,23,10)" stroke="rgb(80,23,10)" stroke-width="1.51"/><path d="M1214,166L1230,135L1096,35Z" fill="rgb(220,14,10)" stroke="rgb(220,14,10)" stroke-width="1.51"/><path d="M166,-407L62,-320L444,-114Z" fill="rgb(66,21,9)" stroke="rgb(66,21,9)" stroke-width="1.51"/><path d="M1230,135L1243,105L1096,35Z" fill="rgb(221,12,9)" stroke="rgb(221,12,9)" stroke-width="1.51"/><path d="M62,-320L-114,-66L182,7Z" fill="rgb(20,7,1)" stroke="rgb(20,7,1)" stroke-width="1.51"/><path d="M1270,-57L1224,-160L1113,-73Z" fill="rgb(105,26,14)" stroke="rgb(105,26,14)" stroke-width="1.51"/><path d="M1113,-73L1224,-160L1021,-198Z" fill="rgb(101,27,17)" stroke="rgb(101,27,17)" stroke-width="1.51"/><path d="M1021,-198L1232,-346L923,-298Z" fill="rgb(98,27,19)" stroke="rgb(98,27,19)" stroke-width="1.51"/><path d="M1243,105L1276,-4L1096,35Z" fill="rgb(210,29,25)" stroke="rgb(210,29,25)" stroke-width="1.51"/><path d="M1276,-4L1270,-57L1113,-73Z" fill="rgb(106,25,14)" stroke="rgb(106,25,14)" stroke-width="1.51"/><path d="M-134,494L-18,527L99,221Z" fill="rgb(110,25,11)" stroke="rgb(110,25,11)" stroke-width="1.51"/><path d="M99,221L-18,527L334,313Z" fill="rgb(150,25,11)" stroke="rgb(150,25,11)" stroke-width="1.51"/><path d="M334,313L-18,527L724,364Z" fill="rgb(214,15,5)" stroke="rgb(214,15,5)" stroke-width="1.51"/><path d="M-134,494L99,221L-51,158Z" fill="rgb(110,25,11)" stroke="rgb(110,25,11)" stroke-width="1.51"/><path d="M-114,-66L-208,45L-51,158Z" fill="rgb(98,29,22)" stroke="rgb(98,29,22)" stroke-width="1.51"/><path d="M62,-320L-132,-76L-114,-66Z" fill="rgb(0,0,0)" stroke="rgb(0,0,0)" stroke-width="1.51"/><path d="M1663,-444L1288,-190L1270,-57Z" fill="rgb(110,25,11)" stroke="rgb(110,25,11)" stroke-width="1.51"/><path d="M1270,-57L1288,-190L1224,-160Z" fill="rgb(109,25,12)" stroke="rgb(109,25,12)" stroke-width="1.51"/><path d="M1224,-160L1232,-346L1021,-198Z" fill="rgb(103,26,16)" stroke="rgb(103,26,16)" stroke-width="1.51"/><path d="M-132,-76L-208,45L-114,-66Z" fill="rgb(0,0,0)" stroke="rgb(0,0,0)" stroke-width="1.51"/><path d="M1230,135L1349,206L1243,105Z" fill="rgb(225,4,3)" stroke="rgb(225,4,3)" stroke-width="1.51"/><path d="M1243,105L1349,206L1276,-4Z" fill="rgb(226,3,3)" stroke="rgb(226,3,3)" stroke-width="1.51"/><path d="M1276,-4L1663,-444L1270,-57Z" fill="rgb(110,25,11)" stroke="rgb(110,25,11)" stroke-width="1.51"/><path d="M1214,166L1349,206L1230,135Z" fill="rgb(225,5,4)" stroke="rgb(225,5,4)" stroke-width="1.51"/><path d="M1063,423L1349,206L1214,166Z" fill="rgb(222,11,8)" stroke="rgb(222,11,8)" stroke-width="1.51"/><path d="M1288,-190L1232,-346L1224,-160Z" fill="rgb(108,25,13)" stroke="rgb(108,25,13)" stroke-width="1.51"/><path d="M-208,45L-134,494L-51,158Z" fill="rgb(110,25,11)" stroke="rgb(110,25,11)" stroke-width="1.51"/><path d="M824,-402L-103,-456L217,-423Z" fill="rgb(90,24,11)" stroke="rgb(90,24,11)" stroke-width="1.51"/><path d="M217,-423L-103,-456L166,-407Z" fill="rgb(34,13,4)" stroke="rgb(34,13,4)" stroke-width="1.51"/><path d="M166,-407L-103,-456L62,-320Z" fill="rgb(20,6,1)" stroke="rgb(20,6,1)" stroke-width="1.51"/><path d="M62,-320L-103,-456L-132,-76Z" fill="rgb(0,0,0)" stroke="rgb(0,0,0)" stroke-width="1.51"/><path d="M-132,-76L-426,14L-208,45Z" fill="rgb(0,0,0)" stroke="rgb(0,0,0)" stroke-width="1.51"/><path d="M-103,-456L-201,-446L-132,-76Z" fill="rgb(0,0,0)" stroke="rgb(0,0,0)" stroke-width="1.51"/><path d="M-201,-446L-426,14L-132,-76Z" fill="rgb(0,0,0)" stroke="rgb(0,0,0)" stroke-width="1.51"/><path d="M-208,45L-426,14L-134,494Z" fill="rgb(110,25,11)" stroke="rgb(110,25,11)" stroke-width="1.51"/><path d="M1288,-190L1663,-444L1232,-346Z" fill="rgb(110,25,11)" stroke="rgb(110,25,11)" stroke-width="1.51"/><path d="M1232,-346L1663,-444L824,-402Z" fill="rgb(107,25,13)" stroke="rgb(107,25,13)" stroke-width="1.51"/><path d="M824,-402L1663,-444L-103,-456Z" fill="rgb(92,29,23)" stroke="rgb(92,29,23)" stroke-width="1.51"/><path d="M1349,206L1663,-444L1276,-4Z" fill="rgb(110,25,11)" stroke="rgb(110,25,11)" stroke-width="1.51"/></svg>