<svg xmlns="http://www.w3.org/2000/svg" width="1280" height="900"><path d="M767,537L833,416L749,379Z" fill="rgb(73,42,84)" stroke="rgb(73,42,84)" stroke-width="1.51"/><path d="M767,537L898,694L833,416Z" fill="rgb(35,26,38)" stroke="rgb(35,26,38)" stroke-width="1.51"/><path d="M767,537L786,729L898,694Z" fill="rgb(31,27,32)" stroke="rgb(31,27,32)" stroke-width="1.51"/><path d="M668,736L786,729L767,537Z" fill="rgb(46,34,50)" stroke="rgb(46,34,50)" stroke-width="1.51"/><path d="M429,606L668,736L767,537Z" fill="rgb(65,40,73)" stroke="rgb(65,40,73)" stroke-width="1.51"/><path d="M848,44L672,186L749,379Z" fill="rgb(126,64,141)" stroke="rgb(126,64,141)" stroke-width="1.51"/><path d="M436,503L767,537L749,379Z" fill="rgb(91,49,106)" stroke="rgb(91,49,106)" stroke-width="1.51"/><path d="M377,271L436,503L749,379Z" fill="rgb(145,67,175)" stroke="rgb(145,67,175)" stroke-width="1.51"/><path d="M672,186L377,271L749,379Z" fill="rgb(156,71,186)" stroke="rgb(156,71,186)" stroke-width="1.51"/><path d="M436,503L429,606L767,537Z" fill="rgb(91,48,107)" stroke="rgb(91,48,107)" stroke-width="1.51"/><path d="M833,416L848,44L749,379Z" fill="rgb(111,56,129)" stroke="rgb(111,56,129)" stroke-width="1.51"/><path d="M672,186L848,44L627,152Z" fill="rgb(139,72,151)" stroke="rgb(139,72,151)" stroke-width="1.51"/><path d="M1178,608L1093,253L833,416Z" fill="rgb(80,52,89)" stroke="rgb(80,52,89)" stroke-width="1.51"/><path d="M668,736L661,857L786,729Z" fill="rgb(65,49,70)" stroke="rgb(65,49,70)" stroke-width="1.51"/><path d="M1043,962L1074,756L898,694Z" fill="rgb(51,51,51)" stroke="rgb(51,51,51)" stroke-width="1.51"/><path d="M418,686L661,857L668,736Z" fill="rgb(89,58,98)" stroke="rgb(89,58,98)" stroke-width="1.51"/><path d="M429,606L418,686L668,736Z" fill="rgb(94,54,108)" stroke="rgb(94,54,108)" stroke-width="1.51"/><path d="M221,580L418,686L429,606Z" fill="rgb(106,57,120)" stroke="rgb(106,57,120)" stroke-width="1.51"/><path d="M1093,253L848,44L833,416Z" fill="rgb(111,61,123)" stroke="rgb(111,61,123)" stroke-width="1.51"/><path d="M898,694L1178,608L833,416Z" fill="rgb(34,30,35)" stroke="rgb(34,30,35)" stroke-width="1.51"/><path d="M1043,962L898,694L914,1023Z" fill="rgb(56,56,56)" stroke="rgb(56,56,56)" stroke-width="1.51"/><path d="M468,142L377,271L627,152Z" fill="rgb(186,84,215)" stroke="rgb(186,84,215)" stroke-width="1.51"/><path d="M627,152L377,271L672,186Z" fill="rgb(170,79,195)" stroke="rgb(170,79,195)" stroke-width="1.51"/><path d="M436,503L221,580L429,606Z" fill="rgb(114,57,131)" stroke="rgb(114,57,131)" stroke-width="1.51"/><path d="M231,-112L468,142L450,-273Z" fill="rgb(215,104,228)" stroke="rgb(215,104,228)" stroke-width="1.51"/><path d="M1074,756L1178,608L898,694Z" fill="rgb(41,41,41)" stroke="rgb(41,41,41)" stroke-width="1.51"/><path d="M661,857L747,991L786,729Z" fill="rgb(70,56,73)" stroke="rgb(70,56,73)" stroke-width="1.51"/><path d="M418,686L650,887L661,857Z" fill="rgb(96,64,106)" stroke="rgb(96,64,106)" stroke-width="1.51"/><path d="M1178,608L1256,465L1093,253Z" fill="rgb(87,62,95)" stroke="rgb(87,62,95)" stroke-width="1.51"/><path d="M650,887L747,991L661,857Z" fill="rgb(84,65,90)" stroke="rgb(84,65,90)" stroke-width="1.51"/><path d="M569,1000L747,991L650,887Z" fill="rgb(90,68,97)" stroke="rgb(90,68,97)" stroke-width="1.51"/><path d="M418,686L558,970L650,887Z" fill="rgb(108,72,120)" stroke="rgb(108,72,120)" stroke-width="1.51"/><path d="M181,360L221,580L436,503Z" fill="rgb(142,70,160)" stroke="rgb(142,70,160)" stroke-width="1.51"/><path d="M418,686L207,835L558,970Z" fill="rgb(132,81,148)" stroke="rgb(132,81,148)" stroke-width="1.51"/><path d="M1259,826L1322,605L1178,608Z" fill="rgb(56,56,56)" stroke="rgb(56,56,56)" stroke-width="1.51"/><path d="M1178,608L1322,605L1256,465Z" fill="rgb(59,53,61)" stroke="rgb(59,53,61)" stroke-width="1.51"/><path d="M914,1023L898,694L786,729Z" fill="rgb(41,41,41)" stroke="rgb(41,41,41)" stroke-width="1.51"/><path d="M1259,826L1178,608L1074,756Z" fill="rgb(55,55,55)" stroke="rgb(55,55,55)" stroke-width="1.51"/><path d="M403,1298L569,1000L558,970Z" fill="rgb(121,81,135)" stroke="rgb(121,81,135)" stroke-width="1.51"/><path d="M558,970L569,1000L650,887Z" fill="rgb(104,73,113)" stroke="rgb(104,73,113)" stroke-width="1.51"/><path d="M818,1126L914,1023L747,991Z" fill="rgb(55,52,56)" stroke="rgb(55,52,56)" stroke-width="1.51"/><path d="M747,991L914,1023L786,729Z" fill="rgb(57,53,58)" stroke="rgb(57,53,58)" stroke-width="1.51"/><path d="M377,271L181,360L436,503Z" fill="rgb(173,78,203)" stroke="rgb(173,78,203)" stroke-width="1.51"/><path d="M168,311L181,360L377,271Z" fill="rgb(198,89,227)" stroke="rgb(198,89,227)" stroke-width="1.51"/><path d="M-104,679L207,835L221,580Z" fill="rgb(124,76,125)" stroke="rgb(124,76,125)" stroke-width="1.51"/><path d="M203,193L168,311L377,271Z" fill="rgb(205,93,232)" stroke="rgb(205,93,232)" stroke-width="1.51"/><path d="M1043,962L1122,957L1074,756Z" fill="rgb(67,67,67)" stroke="rgb(67,67,67)" stroke-width="1.51"/><path d="M1042,1075L1122,957L1043,962Z" fill="rgb(67,67,67)" stroke="rgb(67,67,67)" stroke-width="1.51"/><path d="M1206,911L1259,826L1074,756Z" fill="rgb(67,67,67)" stroke="rgb(67,67,67)" stroke-width="1.51"/><path d="M231,-112L203,193L468,142Z" fill="rgb(214,103,229)" stroke="rgb(214,103,229)" stroke-width="1.51"/><path d="M468,142L203,193L377,271Z" fill="rgb(204,92,232)" stroke="rgb(204,92,232)" stroke-width="1.51"/><path d="M1122,957L1206,911L1074,756Z" fill="rgb(69,69,69)" stroke="rgb(69,69,69)" stroke-width="1.51"/><path d="M1322,605L1429,398L1256,465Z" fill="rgb(82,64,87)" stroke="rgb(82,64,87)" stroke-width="1.51"/><path d="M1256,465L1429,398L1093,253Z" fill="rgb(116,78,128)" stroke="rgb(116,78,128)" stroke-width="1.51"/><path d="M1093,253L1025,-162L848,44Z" fill="rgb(126,77,124)" stroke="rgb(126,77,124)" stroke-width="1.51"/><path d="M1824,519L1429,398L1322,605Z" fill="rgb(77,62,81)" stroke="rgb(77,62,81)" stroke-width="1.51"/><path d="M914,1023L1042,1075L1043,962Z" fill="rgb(61,61,61)" stroke="rgb(61,61,61)" stroke-width="1.51"/><path d="M1122,957L1167,1006L1206,911Z" fill="rgb(74,74,74)" stroke="rgb(74,74,74)" stroke-width="1.51"/><path d="M569,1000L818,1126L747,991Z" fill="rgb(79,63,83)" stroke="rgb(79,63,83)" stroke-width="1.51"/><path d="M450,-273L468,142L627,152Z" fill="rgb(191,95,203)" stroke="rgb(191,95,203)" stroke-width="1.51"/><path d="M1237,-150L1025,-162L1093,253Z" fill="rgb(140,91,135)" stroke="rgb(140,91,135)" stroke-width="1.51"/><path d="M221,580L207,835L418,686Z" fill="rgb(119,69,129)" stroke="rgb(119,69,129)" stroke-width="1.51"/><path d="M623,1411L835,1190L818,1126Z" fill="rgb(69,59,72)" stroke="rgb(69,59,72)" stroke-width="1.51"/><path d="M-39,557L221,580L181,360Z" fill="rgb(143,75,151)" stroke="rgb(143,75,151)" stroke-width="1.51"/><path d="M835,1190L1042,1075L914,1023Z" fill="rgb(55,55,55)" stroke="rgb(55,55,55)" stroke-width="1.51"/><path d="M1042,1075L1167,1006L1122,957Z" fill="rgb(70,70,70)" stroke="rgb(70,70,70)" stroke-width="1.51"/><path d="M1206,911L1369,797L1259,826Z" fill="rgb(77,77,77)" stroke="rgb(77,77,77)" stroke-width="1.51"/><path d="M1616,921L1369,797L1206,911Z" fill="rgb(81,81,81)" stroke="rgb(81,81,81)" stroke-width="1.51"/><path d="M1259,826L1369,797L1322,605Z" fill="rgb(66,66,66)" stroke="rgb(66,66,66)" stroke-width="1.51"/><path d="M1042,1075L1197,1142L1167,1006Z" fill="rgb(72,72,72)" stroke="rgb(72,72,72)" stroke-width="1.51"/><path d="M818,1126L835,1190L914,1023Z" fill="rgb(50,50,50)" stroke="rgb(50,50,50)" stroke-width="1.51"/><path d="M623,1411L818,1126L569,1000Z" fill="rgb(87,67,94)" stroke="rgb(87,67,94)" stroke-width="1.51"/><path d="M1025,-162L450,-273L848,44Z" fill="rgb(133,74,131)" stroke="rgb(133,74,131)" stroke-width="1.51"/><path d="M1192,-257L1037,-243L1025,-162Z" fill="rgb(137,88,132)" stroke="rgb(137,88,132)" stroke-width="1.51"/><path d="M1390,-4L1237,-150L1093,253Z" fill="rgb(150,100,147)" stroke="rgb(150,100,147)" stroke-width="1.51"/><path d="M1429,398L1390,-4L1093,253Z" fill="rgb(145,93,155)" stroke="rgb(145,93,155)" stroke-width="1.51"/><path d="M450,-273L627,152L848,44Z" fill="rgb(163,85,168)" stroke="rgb(163,85,168)" stroke-width="1.51"/><path d="M-98,525L181,360L168,311Z" fill="rgb(176,87,190)" stroke="rgb(176,87,190)" stroke-width="1.51"/><path d="M1037,-243L450,-273L1025,-162Z" fill="rgb(119,69,115)" stroke="rgb(119,69,115)" stroke-width="1.51"/><path d="M1167,1006L1197,1142L1206,911Z" fill="rgb(76,76,76)" stroke="rgb(76,76,76)" stroke-width="1.51"/><path d="M1255,1369L1197,1142L1042,1075Z" fill="rgb(74,74,74)" stroke="rgb(74,74,74)" stroke-width="1.51"/><path d="M-98,525L-39,557L181,360Z" fill="rgb(153,81,157)" stroke="rgb(153,81,157)" stroke-width="1.51"/><path d="M-98,525L168,311L-202,280Z" fill="rgb(189,94,199)" stroke="rgb(189,94,199)" stroke-width="1.51"/><path d="M1751,-321L1192,-257L1237,-150Z" fill="rgb(155,105,150)" stroke="rgb(155,105,150)" stroke-width="1.51"/><path d="M1237,-150L1192,-257L1025,-162Z" fill="rgb(143,94,138)" stroke="rgb(143,94,138)" stroke-width="1.51"/><path d="M1037,-243L450,-381L450,-273Z" fill="rgb(162,85,166)" stroke="rgb(162,85,166)" stroke-width="1.51"/><path d="M-39,557L-104,679L221,580Z" fill="rgb(115,68,112)" stroke="rgb(115,68,112)" stroke-width="1.51"/><path d="M-202,280L168,311L203,193Z" fill="rgb(213,102,229)" stroke="rgb(213,102,229)" stroke-width="1.51"/><path d="M450,-273L137,-246L231,-112Z" fill="rgb(219,109,226)" stroke="rgb(219,109,226)" stroke-width="1.51"/><path d="M830,-620L450,-381L1037,-243Z" fill="rgb(133,75,132)" stroke="rgb(133,75,132)" stroke-width="1.51"/><path d="M-98,525L-104,679L-39,557Z" fill="rgb(120,70,116)" stroke="rgb(120,70,116)" stroke-width="1.51"/><path d="M207,835L403,1298L558,970Z" fill="rgb(141,90,157)" stroke="rgb(141,90,157)" stroke-width="1.51"/><path d="M1429,398L1591,87L1390,-4Z" fill="rgb(148,96,154)" stroke="rgb(148,96,154)" stroke-width="1.51"/><path d="M1751,-321L1181,-496L1192,-257Z" fill="rgb(155,105,150)" stroke="rgb(155,105,150)" stroke-width="1.51"/><path d="M1666,327L1591,87L1429,398Z" fill="rgb(142,90,157)" stroke="rgb(142,90,157)" stroke-width="1.51"/><path d="M1824,519L1322,605L1369,797Z" fill="rgb(54,54,54)" stroke="rgb(54,54,54)" stroke-width="1.51"/><path d="M1824,519L1666,327L1429,398Z" fill="rgb(104,74,114)" stroke="rgb(104,74,114)" stroke-width="1.51"/><path d="M-54,1108L403,1298L207,835Z" fill="rgb(149,98,153)" stroke="rgb(149,98,153)" stroke-width="1.51"/><path d="M835,1190L1255,1369L1042,1075Z" fill="rgb(65,65,65)" stroke="rgb(65,65,65)" stroke-width="1.51"/><path d="M-180,49L-202,280L203,193Z" fill="rgb(220,111,226)" stroke="rgb(220,111,226)" stroke-width="1.51"/><path d="M450,-381L137,-246L450,-273Z" fill="rgb(216,106,227)" stroke="rgb(216,106,227)" stroke-width="1.51"/><path d="M403,1298L623,1411L569,1000Z" fill="rgb(117,79,129)" stroke="rgb(117,79,129)" stroke-width="1.51"/><path d="M1197,1142L1616,921L1206,911Z" fill="rgb(84,84,84)" stroke="rgb(84,84,84)" stroke-width="1.51"/><path d="M-180,49L203,193L231,-112Z" fill="rgb(224,115,224)" stroke="rgb(224,115,224)" stroke-width="1.51"/><path d="M-98,525L-499,676L-104,679Z" fill="rgb(119,72,115)" stroke="rgb(119,72,115)" stroke-width="1.51"/><path d="M-170,-162L-180,49L231,-112Z" fill="rgb(230,122,221)" stroke="rgb(230,122,221)" stroke-width="1.51"/><path d="M1197,1142L1330,1330L1616,921Z" fill="rgb(84,84,84)" stroke="rgb(84,84,84)" stroke-width="1.51"/><path d="M1056,1590L1255,1369L835,1190Z" fill="rgb(65,65,65)" stroke="rgb(65,65,65)" stroke-width="1.51"/><path d="M1255,1369L1330,1330L1197,1142Z" fill="rgb(82,82,82)" stroke="rgb(82,82,82)" stroke-width="1.51"/><path d="M1192,-257L1181,-496L1037,-243Z" fill="rgb(142,93,137)" stroke="rgb(142,93,137)" stroke-width="1.51"/><path d="M1751,-321L1237,-150L1390,-4Z" fill="rgb(155,105,150)" stroke="rgb(155,105,150)" stroke-width="1.51"/><path d="M-180,49L-254,229L-202,280Z" fill="rgb(219,110,226)" stroke="rgb(219,110,226)" stroke-width="1.51"/><path d="M-202,280L-474,390L-98,525Z" fill="rgb(180,91,189)" stroke="rgb(180,91,189)" stroke-width="1.51"/><path d="M-104,679L-54,1108L207,835Z" fill="rgb(152,101,147)" stroke="rgb(152,101,147)" stroke-width="1.51"/><path d="M403,1298L568,1552L623,1411Z" fill="rgb(117,79,129)" stroke="rgb(117,79,129)" stroke-width="1.51"/><path d="M-179,1046L-54,1108L-104,679Z" fill="rgb(155,105,150)" stroke="rgb(155,105,150)" stroke-width="1.51"/><path d="M1651,1270L1686,957L1616,921Z" fill="rgb(84,84,84)" stroke="rgb(84,84,84)" stroke-width="1.51"/><path d="M1616,921L1824,519L1369,797Z" fill="rgb(66,66,66)" stroke="rgb(66,66,66)" stroke-width="1.51"/><path d="M1796,916L1824,519L1616,921Z" fill="rgb(70,70,70)" stroke="rgb(70,70,70)" stroke-width="1.51"/><path d="M2026,144L1698,-59L1591,87Z" fill="rgb(153,102,151)" stroke="rgb(153,102,151)" stroke-width="1.51"/><path d="M1591,87L1698,-59L1390,-4Z" fill="rgb(155,105,150)" stroke="rgb(155,105,150)" stroke-width="1.51"/><path d="M2026,144L1591,87L1666,327Z" fill="rgb(146,94,154)" stroke="rgb(146,94,154)" stroke-width="1.51"/><path d="M1181,-496L830,-620L1037,-243Z" fill="rgb(131,82,126)" stroke="rgb(131,82,126)" stroke-width="1.51"/><path d="M-172,-270L-170,-162L137,-246Z" fill="rgb(230,122,221)" stroke="rgb(230,122,221)" stroke-width="1.51"/><path d="M-499,676L-179,1046L-104,679Z" fill="rgb(142,93,137)" stroke="rgb(142,93,137)" stroke-width="1.51"/><path d="M623,1411L1056,1590L835,1190Z" fill="rgb(53,51,53)" stroke="rgb(53,51,53)" stroke-width="1.51"/><path d="M316,1498L568,1552L403,1298Z" fill="rgb(139,88,157)" stroke="rgb(139,88,157)" stroke-width="1.51"/><path d="M316,1498L403,1298L-54,1108Z" fill="rgb(148,96,154)" stroke="rgb(148,96,154)" stroke-width="1.51"/><path d="M137,-246L-170,-162L231,-112Z" fill="rgb(228,119,222)" stroke="rgb(228,119,222)" stroke-width="1.51"/><path d="M-479,301L-474,390L-254,229Z" fill="rgb(211,101,226)" stroke="rgb(211,101,226)" stroke-width="1.51"/><path d="M391,-654L137,-246L450,-381Z" fill="rgb(217,107,227)" stroke="rgb(217,107,227)" stroke-width="1.51"/><path d="M1817,924L1796,916L1686,957Z" fill="rgb(84,84,84)" stroke="rgb(84,84,84)" stroke-width="1.51"/><path d="M1686,957L1796,916L1616,921Z" fill="rgb(84,84,84)" stroke="rgb(84,84,84)" stroke-width="1.51"/><path d="M70,1851L316,1498L-54,1108Z" fill="rgb(151,101,152)" stroke="rgb(151,101,152)" stroke-width="1.51"/><path d="M1796,916L1927,822L1824,519Z" fill="rgb(67,67,67)" stroke="rgb(67,67,67)" stroke-width="1.51"/><path d="M1651,1270L1817,924L1686,957Z" fill="rgb(84,84,84)" stroke="rgb(84,84,84)" stroke-width="1.51"/><path d="M843,1694L1056,1590L623,1411Z" fill="rgb(52,51,53)" stroke="rgb(52,51,53)" stroke-width="1.51"/><path d="M1649,1556L1651,1270L1330,1330Z" fill="rgb(84,84,84)" stroke="rgb(84,84,84)" stroke-width="1.51"/><path d="M1330,1330L1651,1270L1616,921Z" fill="rgb(84,84,84)" stroke="rgb(84,84,84)" stroke-width="1.51"/><path d="M830,-620L391,-654L450,-381Z" fill="rgb(182,92,191)" stroke="rgb(182,92,191)" stroke-width="1.51"/><path d="M-382,-17L-254,229L-180,49Z" fill="rgb(225,116,223)" stroke="rgb(225,116,223)" stroke-width="1.51"/><path d="M10,-673L-172,-270L137,-246Z" fill="rgb(230,122,221)" stroke="rgb(230,122,221)" stroke-width="1.51"/><path d="M1810,1382L1651,1270L1649,1556Z" fill="rgb(84,84,84)" stroke="rgb(84,84,84)" stroke-width="1.51"/><path d="M1817,924L1927,822L1796,916Z" fill="rgb(82,82,82)" stroke="rgb(82,82,82)" stroke-width="1.51"/><path d="M1858,-210L1751,-321L1698,-59Z" fill="rgb(155,105,150)" stroke="rgb(155,105,150)" stroke-width="1.51"/><path d="M2300,1114L1927,822L1817,924Z" fill="rgb(84,84,84)" stroke="rgb(84,84,84)" stroke-width="1.51"/><path d="M751,1915L843,1694L568,1552Z" fill="rgb(77,62,81)" stroke="rgb(77,62,81)" stroke-width="1.51"/><path d="M568,1552L843,1694L623,1411Z" fill="rgb(86,66,91)" stroke="rgb(86,66,91)" stroke-width="1.51"/><path d="M-254,229L-474,390L-202,280Z" fill="rgb(213,102,229)" stroke="rgb(213,102,229)" stroke-width="1.51"/><path d="M-382,-17L-180,49L-170,-162Z" fill="rgb(230,122,221)" stroke="rgb(230,122,221)" stroke-width="1.51"/><path d="M-172,-270L-382,-17L-170,-162Z" fill="rgb(230,122,221)" stroke="rgb(230,122,221)" stroke-width="1.51"/><path d="M-507,199L-479,301L-254,229Z" fill="rgb(216,106,227)" stroke="rgb(216,106,227)" stroke-width="1.51"/><path d="M1698,-59L1751,-321L1390,-4Z" fill="rgb(155,105,150)" stroke="rgb(155,105,150)" stroke-width="1.51"/><path d="M758,-1133L348,-911L830,-620Z" fill="rgb(162,85,166)" stroke="rgb(162,85,166)" stroke-width="1.51"/><path d="M1858,-210L1698,-59L2026,144Z" fill="rgb(155,105,150)" stroke="rgb(155,105,150)" stroke-width="1.51"/><path d="M843,1694L918,1720L1056,1590Z" fill="rgb(56,56,56)" stroke="rgb(56,56,56)" stroke-width="1.51"/><path d="M1649,1556L1330,1330L1255,1369Z" fill="rgb(84,84,84)" stroke="rgb(84,84,84)" stroke-width="1.51"/><path d="M2026,144L1666,327L1824,519Z" fill="rgb(130,84,146)" stroke="rgb(130,84,146)" stroke-width="1.51"/><path d="M-651,469L-499,676L-474,390Z" fill="rgb(143,78,144)" stroke="rgb(143,78,144)" stroke-width="1.51"/><path d="M-474,390L-499,676L-98,525Z" fill="rgb(137,76,137)" stroke="rgb(137,76,137)" stroke-width="1.51"/><path d="M-479,301L-651,469L-474,390Z" fill="rgb(184,92,193)" stroke="rgb(184,92,193)" stroke-width="1.51"/><path d="M-382,-17L-507,199L-254,229Z" fill="rgb(222,113,225)" stroke="rgb(222,113,225)" stroke-width="1.51"/><path d="M2260,261L2026,144L1824,519Z" fill="rgb(137,87,154)" stroke="rgb(137,87,154)" stroke-width="1.51"/><path d="M-179,1046L-325,1177L-54,1108Z" fill="rgb(155,105,150)" stroke="rgb(155,105,150)" stroke-width="1.51"/><path d="M-499,676L-325,1177L-179,1046Z" fill="rgb(155,105,150)" stroke="rgb(155,105,150)" stroke-width="1.51"/><path d="M1858,-210L1819,-337L1751,-321Z" fill="rgb(155,105,150)" stroke="rgb(155,105,150)" stroke-width="1.51"/><path d="M1751,-321L1936,-527L1181,-496Z" fill="rgb(155,105,150)" stroke="rgb(155,105,150)" stroke-width="1.51"/><path d="M1936,-527L1819,-337L1980,-528Z" fill="rgb(155,105,150)" stroke="rgb(155,105,150)" stroke-width="1.51"/><path d="M-172,-270L-321,-465L-382,-17Z" fill="rgb(230,122,221)" stroke="rgb(230,122,221)" stroke-width="1.51"/><path d="M391,-654L10,-673L137,-246Z" fill="rgb(223,114,224)" stroke="rgb(223,114,224)" stroke-width="1.51"/><path d="M348,-911L144,-775L391,-654Z" fill="rgb(218,108,226)" stroke="rgb(218,108,226)" stroke-width="1.51"/><path d="M391,-654L144,-775L10,-673Z" fill="rgb(223,114,225)" stroke="rgb(223,114,225)" stroke-width="1.51"/><path d="M1651,1270L1810,1382L1817,924Z" fill="rgb(84,84,84)" stroke="rgb(84,84,84)" stroke-width="1.51"/><path d="M1649,1556L1255,1369L1056,1590Z" fill="rgb(84,84,84)" stroke="rgb(84,84,84)" stroke-width="1.51"/><path d="M1309,1984L1649,1556L1056,1590Z" fill="rgb(84,84,84)" stroke="rgb(84,84,84)" stroke-width="1.51"/><path d="M-499,676L-448,1364L-325,1177Z" fill="rgb(155,105,150)" stroke="rgb(155,105,150)" stroke-width="1.51"/><path d="M-507,199L-651,469L-479,301Z" fill="rgb(205,100,219)" stroke="rgb(205,100,219)" stroke-width="1.51"/><path d="M-234,-677L-321,-465L10,-673Z" fill="rgb(230,122,221)" stroke="rgb(230,122,221)" stroke-width="1.51"/><path d="M10,-673L-321,-465L-172,-270Z" fill="rgb(230,122,221)" stroke="rgb(230,122,221)" stroke-width="1.51"/><path d="M-382,-17L-661,-276L-507,199Z" fill="rgb(230,122,221)" stroke="rgb(230,122,221)" stroke-width="1.51"/><path d="M-507,199L-923,49L-651,469Z" fill="rgb(216,106,227)" stroke="rgb(216,106,227)" stroke-width="1.51"/><path d="M144,-775L98,-804L10,-673Z" fill="rgb(227,118,223)" stroke="rgb(227,118,223)" stroke-width="1.51"/><path d="M348,-911L98,-804L144,-775Z" fill="rgb(222,113,225)" stroke="rgb(222,113,225)" stroke-width="1.51"/><path d="M830,-620L348,-911L391,-654Z" fill="rgb(190,95,201)" stroke="rgb(190,95,201)" stroke-width="1.51"/><path d="M758,-1133L830,-620L881,-1240Z" fill="rgb(122,71,119)" stroke="rgb(122,71,119)" stroke-width="1.51"/><path d="M98,-804L-30,-743L10,-673Z" fill="rgb(229,121,222)" stroke="rgb(229,121,222)" stroke-width="1.51"/><path d="M70,1851L751,1915L568,1552Z" fill="rgb(132,85,147)" stroke="rgb(132,85,147)" stroke-width="1.51"/><path d="M843,1694L751,1915L918,1720Z" fill="rgb(53,51,53)" stroke="rgb(53,51,53)" stroke-width="1.51"/><path d="M918,1720L1309,1984L1056,1590Z" fill="rgb(69,69,69)" stroke="rgb(69,69,69)" stroke-width="1.51"/><path d="M70,1851L568,1552L316,1498Z" fill="rgb(144,92,155)" stroke="rgb(144,92,155)" stroke-width="1.51"/><path d="M2337,83L1980,-528L1858,-210Z" fill="rgb(155,105,150)" stroke="rgb(155,105,150)" stroke-width="1.51"/><path d="M1927,822L2260,261L1824,519Z" fill="rgb(69,59,71)" stroke="rgb(69,59,71)" stroke-width="1.51"/><path d="M2497,794L2260,261L1927,822Z" fill="rgb(53,53,53)" stroke="rgb(53,53,53)" stroke-width="1.51"/><path d="M-56,-880L-234,-677L-30,-743Z" fill="rgb(230,122,221)" stroke="rgb(230,122,221)" stroke-width="1.51"/><path d="M-30,-743L-234,-677L10,-673Z" fill="rgb(230,122,221)" stroke="rgb(230,122,221)" stroke-width="1.51"/><path d="M-56,-880L-30,-743L98,-804Z" fill="rgb(230,122,221)" stroke="rgb(230,122,221)" stroke-width="1.51"/><path d="M-325,1177L-448,1364L-54,1108Z" fill="rgb(155,105,150)" stroke="rgb(155,105,150)" stroke-width="1.51"/><path d="M-631,1532L-448,1364L-1109,809Z" fill="rgb(155,105,150)" stroke="rgb(155,105,150)" stroke-width="1.51"/><path d="M1819,-337L1936,-527L1751,-321Z" fill="rgb(155,105,150)" stroke="rgb(155,105,150)" stroke-width="1.51"/><path d="M1980,-528L1819,-337L1858,-210Z" fill="rgb(155,105,150)" stroke="rgb(155,105,150)" stroke-width="1.51"/><path d="M-448,1364L70,1851L-54,1108Z" fill="rgb(155,105,150)" stroke="rgb(155,105,150)" stroke-width="1.51"/><path d="M881,-1240L830,-620L1181,-496Z" fill="rgb(126,78,121)" stroke="rgb(126,78,121)" stroke-width="1.51"/><path d="M2337,83L1858,-210L2026,144Z" fill="rgb(155,105,150)" stroke="rgb(155,105,150)" stroke-width="1.51"/><path d="M113,-1070L-56,-880L98,-804Z" fill="rgb(228,120,222)" stroke="rgb(228,120,222)" stroke-width="1.51"/><path d="M348,-911L113,-1070L98,-804Z" fill="rgb(223,114,225)" stroke="rgb(223,114,225)" stroke-width="1.51"/><path d="M881,-1240L1181,-496L2134,-1238Z" fill="rgb(155,105,150)" stroke="rgb(155,105,150)" stroke-width="1.51"/><path d="M758,-1133L348,-1087L348,-911Z" fill="rgb(199,97,212)" stroke="rgb(199,97,212)" stroke-width="1.51"/><path d="M1810,1382L2040,1426L1817,924Z" fill="rgb(84,84,84)" stroke="rgb(84,84,84)" stroke-width="1.51"/><path d="M1649,1556L2040,1426L1810,1382Z" fill="rgb(84,84,84)" stroke="rgb(84,84,84)" stroke-width="1.51"/><path d="M2300,1845L2040,1426L1649,1556Z" fill="rgb(84,84,84)" stroke="rgb(84,84,84)" stroke-width="1.51"/><path d="M-773,-879L-321,-465L-234,-677Z" fill="rgb(230,122,221)" stroke="rgb(230,122,221)" stroke-width="1.51"/><path d="M-773,-879L-661,-276L-321,-465Z" fill="rgb(230,122,221)" stroke="rgb(230,122,221)" stroke-width="1.51"/><path d="M-321,-465L-661,-276L-382,-17Z" fill="rgb(230,122,221)" stroke="rgb(230,122,221)" stroke-width="1.51"/><path d="M2260,261L2337,83L2026,144Z" fill="rgb(147,96,154)" stroke="rgb(147,96,154)" stroke-width="1.51"/><path d="M2497,794L2337,83L2260,261Z" fill="rgb(115,78,127)" stroke="rgb(115,78,127)" stroke-width="1.51"/><path d="M751,1915L1309,1984L918,1720Z" fill="rgb(60,60,60)" stroke="rgb(60,60,60)" stroke-width="1.51"/><path d="M75,2302L1309,1984L751,1915Z" fill="rgb(78,63,83)" stroke="rgb(78,63,83)" stroke-width="1.51"/><path d="M-448,1364L-21,1914L70,1851Z" fill="rgb(155,105,150)" stroke="rgb(155,105,150)" stroke-width="1.51"/><path d="M70,1851L75,2302L751,1915Z" fill="rgb(145,93,155)" stroke="rgb(145,93,155)" stroke-width="1.51"/><path d="M-52,-1299L113,-1070L348,-1087Z" fill="rgb(225,116,224)" stroke="rgb(225,116,224)" stroke-width="1.51"/><path d="M348,-1087L113,-1070L348,-911Z" fill="rgb(219,110,226)" stroke="rgb(219,110,226)" stroke-width="1.51"/><path d="M-56,-880L-773,-879L-234,-677Z" fill="rgb(230,122,221)" stroke="rgb(230,122,221)" stroke-width="1.51"/><path d="M2040,1426L2300,1114L1817,924Z" fill="rgb(84,84,84)" stroke="rgb(84,84,84)" stroke-width="1.51"/><path d="M2134,-1238L1181,-496L1936,-527Z" fill="rgb(155,105,150)" stroke="rgb(155,105,150)" stroke-width="1.51"/><path d="M758,-1133L881,-1240L348,-1087Z" fill="rgb(158,84,162)" stroke="rgb(158,84,162)" stroke-width="1.51"/><path d="M-661,-276L-923,49L-507,199Z" fill="rgb(230,122,221)" stroke="rgb(230,122,221)" stroke-width="1.51"/><path d="M-1109,809L-448,1364L-499,676Z" fill="rgb(155,105,150)" stroke="rgb(155,105,150)" stroke-width="1.51"/><path d="M2300,1114L2455,862L1927,822Z" fill="rgb(84,84,84)" stroke="rgb(84,84,84)" stroke-width="1.51"/><path d="M-448,1364L-631,1532L-21,1914Z" fill="rgb(155,105,150)" stroke="rgb(155,105,150)" stroke-width="1.51"/><path d="M-1109,809L-499,676L-651,469Z" fill="rgb(122,75,118)" stroke="rgb(122,75,118)" stroke-width="1.51"/><path d="M2300,1845L2497,794L2455,862Z" fill="rgb(84,84,84)" stroke="rgb(84,84,84)" stroke-width="1.51"/><path d="M2455,862L2497,794L1927,822Z" fill="rgb(75,75,75)" stroke="rgb(75,75,75)" stroke-width="1.51"/><path d="M-923,49L-1109,809L-651,469Z" fill="rgb(166,86,171)" stroke="rgb(166,86,171)" stroke-width="1.51"/><path d="M881,-1240L-52,-1299L348,-1087Z" fill="rgb(214,103,228)" stroke="rgb(214,103,228)" stroke-width="1.51"/><path d="M113,-1070L-52,-1299L-56,-880Z" fill="rgb(230,122,221)" stroke="rgb(230,122,221)" stroke-width="1.51"/><path d="M-661,-276L-773,-879L-923,49Z" fill="rgb(230,122,221)" stroke="rgb(230,122,221)" stroke-width="1.51"/><path d="M-631,1532L75,2302L-21,1914Z" fill="rgb(155,105,150)" stroke="rgb(155,105,150)" stroke-width="1.51"/><path d="M-21,1914L75,2302L70,1851Z" fill="rgb(154,104,151)" stroke="rgb(154,104,151)" stroke-width="1.51"/><path d="M-52,-1299L-773,-879L-56,-880Z" fill="rgb(230,122,221)" stroke="rgb(230,122,221)" stroke-width="1.51"/><path d="M-923,49L-773,-879L-1109,809Z" fill="rgb(230,122,221)" stroke="rgb(230,122,221)" stroke-width="1.51"/><path d="M-631,1532L-968,1553L75,2302Z" fill="rgb(155,105,150)" stroke="rgb(155,105,150)" stroke-width="1.51"/><path d="M-1109,809L-968,1553L-631,1532Z" fill="rgb(155,105,150)" stroke="rgb(155,105,150)" stroke-width="1.51"/><path d="M2040,1426L2300,1845L2300,1114Z" fill="rgb(84,84,84)" stroke="rgb(84,84,84)" stroke-width="1.51"/><path d="M2300,1114L2300,1845L2455,862Z" fill="rgb(84,84,84)" stroke="rgb(84,84,84)" stroke-width="1.51"/><path d="M1309,1984L2300,1845L1649,1556Z" fill="rgb(84,84,84)" stroke="rgb(84,84,84)" stroke-width="1.51"/><path d="M75,2302L2300,1845L1309,1984Z" fill="rgb(79,79,79)" stroke="rgb(79,79,79)" stroke-width="1.51"/><path d="M1980,-528L2134,-1238L1936,-527Z" fill="rgb(155,105,150)" stroke="rgb(155,105,150)" stroke-width="1.51"/><path d="M881,-1240L2134,-1238L-52,-1299Z" fill="rgb(128,80,123)" stroke="rgb(128,80,123)" stroke-width="1.51"/><path d="M2337,83L2134,-1238L1980,-528Z" fill="rgb(155,105,150)" stroke="rgb(155,105,150)" stroke-width="1.51"/><path d="M2497,794L2134,-1238L2337,83Z" fill="rgb(155,105,150)" stroke="rgb(155,105,150)" stroke-width="1.51"/></svg>