<svg xmlns="http://www.w3.org/2000/svg" width="1600" height="68"><path d="M1020,127L591,-52L676,238Z" fill="rgb(149,37,147)" stroke="rgb(149,37,147)" stroke-width="1.51"/><path d="M1020,127L827,-232L591,-52Z" fill="rgb(154,43,152)" stroke="rgb(154,43,152)" stroke-width="1.51"/><path d="M827,-232L819,-426L591,-52Z" fill="rgb(148,36,146)" stroke="rgb(148,36,146)" stroke-width="1.51"/><path d="M1467,-596L819,-426L827,-232Z" fill="rgb(175,67,171)" stroke="rgb(175,67,171)" stroke-width="1.51"/><path d="M676,238L637,760L1020,127Z" fill="rgb(151,39,149)" stroke="rgb(151,39,149)" stroke-width="1.51"/><path d="M180,0L385,475L676,238Z" fill="rgb(128,0,128)" stroke="rgb(128,0,128)" stroke-width="1.51"/><path d="M591,-52L180,0L676,238Z" fill="rgb(141,27,140)" stroke="rgb(141,27,140)" stroke-width="1.51"/><path d="M141,-379L180,0L591,-52Z" fill="rgb(128,0,128)" stroke="rgb(128,0,128)" stroke-width="1.51"/><path d="M819,-426L596,-594L591,-52Z" fill="rgb(140,25,139)" stroke="rgb(140,25,139)" stroke-width="1.51"/><path d="M385,475L637,760L676,238Z" fill="rgb(131,7,130)" stroke="rgb(131,7,130)" stroke-width="1.51"/><path d="M596,-594L141,-379L591,-52Z" fill="rgb(128,0,128)" stroke="rgb(128,0,128)" stroke-width="1.51"/><path d="M430,-633L141,-379L596,-594Z" fill="rgb(128,0,128)" stroke="rgb(128,0,128)" stroke-width="1.51"/><path d="M-10,486L158,555L180,0Z" fill="rgb(128,0,128)" stroke="rgb(128,0,128)" stroke-width="1.51"/><path d="M180,0L158,555L385,475Z" fill="rgb(128,0,128)" stroke="rgb(128,0,128)" stroke-width="1.51"/><path d="M385,475L173,926L637,760Z" fill="rgb(128,0,128)" stroke="rgb(128,0,128)" stroke-width="1.51"/><path d="M430,-633L293,-609L141,-379Z" fill="rgb(128,0,128)" stroke="rgb(128,0,128)" stroke-width="1.51"/><path d="M819,-426L789,-877L596,-594Z" fill="rgb(147,34,145)" stroke="rgb(147,34,145)" stroke-width="1.51"/><path d="M596,-594L754,-898L430,-633Z" fill="rgb(133,13,133)" stroke="rgb(133,13,133)" stroke-width="1.51"/><path d="M430,-633L157,-795L293,-609Z" fill="rgb(128,0,128)" stroke="rgb(128,0,128)" stroke-width="1.51"/><path d="M1467,-596L975,-820L819,-426Z" fill="rgb(176,68,172)" stroke="rgb(176,68,172)" stroke-width="1.51"/><path d="M1020,127L1467,-596L827,-232Z" fill="rgb(175,66,170)" stroke="rgb(175,66,170)" stroke-width="1.51"/><path d="M637,760L1585,464L1020,127Z" fill="rgb(177,68,172)" stroke="rgb(177,68,172)" stroke-width="1.51"/><path d="M975,-820L789,-877L819,-426Z" fill="rgb(159,49,156)" stroke="rgb(159,49,156)" stroke-width="1.51"/><path d="M1585,464L1467,-596L1020,127Z" fill="rgb(151,39,148)" stroke="rgb(151,39,148)" stroke-width="1.51"/><path d="M173,926L515,987L637,760Z" fill="rgb(128,0,128)" stroke="rgb(128,0,128)" stroke-width="1.51"/><path d="M-615,134L-10,486L180,0Z" fill="rgb(128,0,128)" stroke="rgb(128,0,128)" stroke-width="1.51"/><path d="M789,-877L754,-898L596,-594Z" fill="rgb(145,31,143)" stroke="rgb(145,31,143)" stroke-width="1.51"/><path d="M1041,-894L754,-898L789,-877Z" fill="rgb(159,49,156)" stroke="rgb(159,49,156)" stroke-width="1.51"/><path d="M141,-379L-29,-414L180,0Z" fill="rgb(128,0,128)" stroke="rgb(128,0,128)" stroke-width="1.51"/><path d="M293,-609L-29,-414L141,-379Z" fill="rgb(128,0,128)" stroke="rgb(128,0,128)" stroke-width="1.51"/><path d="M157,-795L-29,-414L293,-609Z" fill="rgb(128,0,128)" stroke="rgb(128,0,128)" stroke-width="1.51"/><path d="M975,-820L1041,-894L789,-877Z" fill="rgb(166,56,162)" stroke="rgb(166,56,162)" stroke-width="1.51"/><path d="M1295,-851L1041,-894L975,-820Z" fill="rgb(175,66,170)" stroke="rgb(175,66,170)" stroke-width="1.51"/><path d="M637,760L1161,1136L1585,464Z" fill="rgb(172,64,168)" stroke="rgb(172,64,168)" stroke-width="1.51"/><path d="M101,779L385,475L158,555Z" fill="rgb(128,0,128)" stroke="rgb(128,0,128)" stroke-width="1.51"/><path d="M-126,631L101,779L158,555Z" fill="rgb(128,0,128)" stroke="rgb(128,0,128)" stroke-width="1.51"/><path d="M1467,-596L1295,-851L975,-820Z" fill="rgb(161,51,158)" stroke="rgb(161,51,158)" stroke-width="1.51"/><path d="M152,-921L157,-795L430,-633Z" fill="rgb(128,0,128)" stroke="rgb(128,0,128)" stroke-width="1.51"/><path d="M515,987L815,1125L637,760Z" fill="rgb(139,23,138)" stroke="rgb(139,23,138)" stroke-width="1.51"/><path d="M515,987L628,1271L815,1125Z" fill="rgb(139,23,138)" stroke="rgb(139,23,138)" stroke-width="1.51"/><path d="M101,779L173,926L385,475Z" fill="rgb(128,0,128)" stroke="rgb(128,0,128)" stroke-width="1.51"/><path d="M-10,486L-126,631L158,555Z" fill="rgb(128,0,128)" stroke="rgb(128,0,128)" stroke-width="1.51"/><path d="M101,779L-159,1187L173,926Z" fill="rgb(128,0,128)" stroke="rgb(128,0,128)" stroke-width="1.51"/><path d="M-615,134L-126,631L-10,486Z" fill="rgb(128,0,128)" stroke="rgb(128,0,128)" stroke-width="1.51"/><path d="M815,1125L1161,1136L637,760Z" fill="rgb(160,50,157)" stroke="rgb(160,50,157)" stroke-width="1.51"/><path d="M299,-1114L152,-921L430,-633Z" fill="rgb(128,0,128)" stroke="rgb(128,0,128)" stroke-width="1.51"/><path d="M157,-795L-345,-570L-29,-414Z" fill="rgb(128,0,128)" stroke="rgb(128,0,128)" stroke-width="1.51"/><path d="M299,-1114L430,-633L461,-1172Z" fill="rgb(128,0,128)" stroke="rgb(128,0,128)" stroke-width="1.51"/><path d="M1585,464L2023,546L1467,-596Z" fill="rgb(128,0,128)" stroke="rgb(128,0,128)" stroke-width="1.51"/><path d="M1737,1230L1828,596L1585,464Z" fill="rgb(128,0,128)" stroke="rgb(128,0,128)" stroke-width="1.51"/><path d="M1041,-894L1152,-1104L754,-898Z" fill="rgb(170,62,166)" stroke="rgb(170,62,166)" stroke-width="1.51"/><path d="M1295,-851L1242,-1052L1041,-894Z" fill="rgb(166,57,162)" stroke="rgb(166,57,162)" stroke-width="1.51"/><path d="M1242,-1190L1242,-1052L1412,-1185Z" fill="rgb(156,46,154)" stroke="rgb(156,46,154)" stroke-width="1.51"/><path d="M1242,-1052L1152,-1104L1041,-894Z" fill="rgb(171,62,167)" stroke="rgb(171,62,167)" stroke-width="1.51"/><path d="M171,1267L628,1271L515,987Z" fill="rgb(128,0,128)" stroke="rgb(128,0,128)" stroke-width="1.51"/><path d="M815,1125L628,1271L1161,1136Z" fill="rgb(159,49,156)" stroke="rgb(159,49,156)" stroke-width="1.51"/><path d="M461,-1172L430,-633L754,-898Z" fill="rgb(129,3,129)" stroke="rgb(129,3,129)" stroke-width="1.51"/><path d="M1152,-1104L461,-1172L754,-898Z" fill="rgb(152,41,150)" stroke="rgb(152,41,150)" stroke-width="1.51"/><path d="M-29,-414L-615,134L180,0Z" fill="rgb(128,0,128)" stroke="rgb(128,0,128)" stroke-width="1.51"/><path d="M-291,-1077L-345,-570L157,-795Z" fill="rgb(128,0,128)" stroke="rgb(128,0,128)" stroke-width="1.51"/><path d="M-514,-776L-345,-570L-291,-1077Z" fill="rgb(128,0,128)" stroke="rgb(128,0,128)" stroke-width="1.51"/><path d="M1152,-1104L379,-1329L461,-1172Z" fill="rgb(140,25,139)" stroke="rgb(140,25,139)" stroke-width="1.51"/><path d="M1242,-1052L1242,-1190L1152,-1104Z" fill="rgb(165,55,161)" stroke="rgb(165,55,161)" stroke-width="1.51"/><path d="M1412,-1185L1242,-1052L1295,-851Z" fill="rgb(154,44,152)" stroke="rgb(154,44,152)" stroke-width="1.51"/><path d="M1828,596L2023,546L1585,464Z" fill="rgb(128,0,128)" stroke="rgb(128,0,128)" stroke-width="1.51"/><path d="M1467,-596L1412,-1185L1295,-851Z" fill="rgb(147,35,145)" stroke="rgb(147,35,145)" stroke-width="1.51"/><path d="M2028,738L2023,546L1828,596Z" fill="rgb(128,0,128)" stroke="rgb(128,0,128)" stroke-width="1.51"/><path d="M2278,-731L1412,-1185L1467,-596Z" fill="rgb(128,0,128)" stroke="rgb(128,0,128)" stroke-width="1.51"/><path d="M173,926L171,1267L515,987Z" fill="rgb(128,0,128)" stroke="rgb(128,0,128)" stroke-width="1.51"/><path d="M-159,1187L171,1267L173,926Z" fill="rgb(128,0,128)" stroke="rgb(128,0,128)" stroke-width="1.51"/><path d="M1737,1230L2028,738L1828,596Z" fill="rgb(128,0,128)" stroke="rgb(128,0,128)" stroke-width="1.51"/><path d="M-126,631L-159,1187L101,779Z" fill="rgb(128,0,128)" stroke="rgb(128,0,128)" stroke-width="1.51"/><path d="M-345,-570L-615,134L-29,-414Z" fill="rgb(128,0,128)" stroke="rgb(128,0,128)" stroke-width="1.51"/><path d="M-291,-1077L157,-795L152,-921Z" fill="rgb(128,0,128)" stroke="rgb(128,0,128)" stroke-width="1.51"/><path d="M461,-1172L379,-1329L299,-1114Z" fill="rgb(128,0,128)" stroke="rgb(128,0,128)" stroke-width="1.51"/><path d="M1242,-1190L379,-1329L1152,-1104Z" fill="rgb(165,55,161)" stroke="rgb(165,55,161)" stroke-width="1.51"/><path d="M1412,-1185L379,-1329L1242,-1190Z" fill="rgb(173,64,169)" stroke="rgb(173,64,169)" stroke-width="1.51"/><path d="M-838,682L-159,1187L-126,631Z" fill="rgb(128,0,128)" stroke="rgb(128,0,128)" stroke-width="1.51"/><path d="M1161,1136L1737,1230L1585,464Z" fill="rgb(138,21,137)" stroke="rgb(138,21,137)" stroke-width="1.51"/><path d="M628,1271L1737,1230L1161,1136Z" fill="rgb(168,59,164)" stroke="rgb(168,59,164)" stroke-width="1.51"/><path d="M2229,675L2282,482L2023,546Z" fill="rgb(128,0,128)" stroke="rgb(128,0,128)" stroke-width="1.51"/><path d="M2633,-80L2278,-731L1467,-596Z" fill="rgb(128,0,128)" stroke="rgb(128,0,128)" stroke-width="1.51"/><path d="M2229,675L2023,546L2028,738Z" fill="rgb(128,0,128)" stroke="rgb(128,0,128)" stroke-width="1.51"/><path d="M-345,-570L-803,-408L-615,134Z" fill="rgb(128,0,128)" stroke="rgb(128,0,128)" stroke-width="1.51"/><path d="M-291,-1077L152,-921L299,-1114Z" fill="rgb(128,0,128)" stroke="rgb(128,0,128)" stroke-width="1.51"/><path d="M2094,1115L2229,675L2028,738Z" fill="rgb(128,0,128)" stroke="rgb(128,0,128)" stroke-width="1.51"/><path d="M379,-1329L-291,-1077L299,-1114Z" fill="rgb(128,0,128)" stroke="rgb(128,0,128)" stroke-width="1.51"/><path d="M628,1271L-68,1351L1737,1230Z" fill="rgb(150,38,147)" stroke="rgb(150,38,147)" stroke-width="1.51"/><path d="M171,1267L-68,1351L628,1271Z" fill="rgb(128,0,128)" stroke="rgb(128,0,128)" stroke-width="1.51"/><path d="M-159,1187L-68,1351L171,1267Z" fill="rgb(128,0,128)" stroke="rgb(128,0,128)" stroke-width="1.51"/><path d="M2633,-80L1467,-596L2023,546Z" fill="rgb(128,0,128)" stroke="rgb(128,0,128)" stroke-width="1.51"/><path d="M-514,-776L-803,-408L-345,-570Z" fill="rgb(128,0,128)" stroke="rgb(128,0,128)" stroke-width="1.51"/><path d="M-906,-303L-803,-408L-953,-443Z" fill="rgb(128,0,128)" stroke="rgb(128,0,128)" stroke-width="1.51"/><path d="M1737,1230L2094,1115L2028,738Z" fill="rgb(128,0,128)" stroke="rgb(128,0,128)" stroke-width="1.51"/><path d="M-803,-408L-906,-303L-615,134Z" fill="rgb(128,0,128)" stroke="rgb(128,0,128)" stroke-width="1.51"/><path d="M-615,134L-838,682L-126,631Z" fill="rgb(128,0,128)" stroke="rgb(128,0,128)" stroke-width="1.51"/><path d="M-953,-443L-803,-408L-1011,-757Z" fill="rgb(128,0,128)" stroke="rgb(128,0,128)" stroke-width="1.51"/><path d="M-1011,523L-838,682L-615,134Z" fill="rgb(128,0,128)" stroke="rgb(128,0,128)" stroke-width="1.51"/><path d="M-159,1187L-838,682L-68,1351Z" fill="rgb(128,0,128)" stroke="rgb(128,0,128)" stroke-width="1.51"/><path d="M2512,792L2282,482L2229,675Z" fill="rgb(128,0,128)" stroke="rgb(128,0,128)" stroke-width="1.51"/><path d="M2512,792L2530,432L2282,482Z" fill="rgb(128,0,128)" stroke="rgb(128,0,128)" stroke-width="1.51"/><path d="M2282,482L2633,-80L2023,546Z" fill="rgb(128,0,128)" stroke="rgb(128,0,128)" stroke-width="1.51"/><path d="M-906,-303L-1011,523L-615,134Z" fill="rgb(128,0,128)" stroke="rgb(128,0,128)" stroke-width="1.51"/><path d="M-1011,-757L-803,-408L-514,-776Z" fill="rgb(128,0,128)" stroke="rgb(128,0,128)" stroke-width="1.51"/><path d="M2530,432L2633,-80L2282,482Z" fill="rgb(128,0,128)" stroke="rgb(128,0,128)" stroke-width="1.51"/><path d="M2530,432L3039,-648L2633,-80Z" fill="rgb(128,0,128)" stroke="rgb(128,0,128)" stroke-width="1.51"/><path d="M2094,1115L2512,792L2229,675Z" fill="rgb(128,0,128)" stroke="rgb(128,0,128)" stroke-width="1.51"/><path d="M-953,-443L-1011,523L-906,-303Z" fill="rgb(128,0,128)" stroke="rgb(128,0,128)" stroke-width="1.51"/><path d="M3039,-648L2373,-1136L2278,-731Z" fill="rgb(128,0,128)" stroke="rgb(128,0,128)" stroke-width="1.51"/><path d="M2278,-731L2373,-1136L1412,-1185Z" fill="rgb(128,0,128)" stroke="rgb(128,0,128)" stroke-width="1.51"/><path d="M1412,-1185L2373,-1136L379,-1329Z" fill="rgb(148,36,146)" stroke="rgb(148,36,146)" stroke-width="1.51"/><path d="M-953,-443L-1011,-757L-1011,523Z" fill="rgb(128,0,128)" stroke="rgb(128,0,128)" stroke-width="1.51"/><path d="M-291,-1077L-1011,-757L-514,-776Z" fill="rgb(128,0,128)" stroke="rgb(128,0,128)" stroke-width="1.51"/><path d="M2633,-80L3039,-648L2278,-731Z" fill="rgb(128,0,128)" stroke="rgb(128,0,128)" stroke-width="1.51"/><path d="M2512,792L3039,-648L2530,432Z" fill="rgb(128,0,128)" stroke="rgb(128,0,128)" stroke-width="1.51"/></svg>